<svg width="96" height="87" viewBox="0 0 96 87" fill="none" xmlns="http://www.w3.org/2000/svg">
<path d="M82.9091 26.1C81.6727 26.1 80.6371 25.6824 79.8022 24.8472C78.9673 24.012 78.5483 22.9796 78.5454 21.75V17.4H74.1818C72.9454 17.4 71.9098 16.9824 71.0749 16.1472C70.24 15.312 69.8211 14.2796 69.8182 13.05C69.8182 11.8175 70.2371 10.7851 71.0749 9.9528C71.9127 9.1205 72.9483 8.7029 74.1818 8.7H78.5454V4.35C78.5454 3.1175 78.9644 2.0851 79.8022 1.2528C80.64 0.4205 81.6756 0.0029 82.9091 0C84.1454 0 85.1825 0.4176 86.0203 1.2528C86.8582 2.088 87.2756 3.1204 87.2727 4.35V8.7H91.6363C92.8727 8.7 93.9098 9.1176 94.7476 9.9528C95.5854 10.788 96.0029 11.8204 96 13.05C96 14.2825 95.5811 15.3163 94.7433 16.1515C93.9054 16.9867 92.8698 17.4029 91.6363 17.4H87.2727V21.75C87.2727 22.9825 86.8538 24.0163 86.016 24.8515C85.1782 25.6867 84.1425 26.1029 82.9091 26.1ZM43.6364 71.775C49.0909 71.775 53.728 69.8726 57.5476 66.0678C61.3673 62.263 63.2756 57.6404 63.2727 52.2C63.2727 46.7625 61.3643 42.1413 57.5476 38.3365C53.7309 34.5317 49.0938 32.6279 43.6364 32.625C38.1818 32.625 33.5462 34.5289 29.7295 38.3365C25.9127 42.1442 24.0029 46.7654 24 52.2C24 57.6375 25.9098 62.2601 29.7295 66.0678C33.5491 69.8755 38.1847 71.7779 43.6364 71.775ZM43.6364 63.075C40.5818 63.075 38 62.0238 35.8909 59.9212C33.7818 57.8187 32.7273 55.245 32.7273 52.2C32.7273 49.155 33.7818 46.5812 35.8909 44.4787C38 42.3763 40.5818 41.325 43.6364 41.325C46.6909 41.325 49.2727 42.3763 51.3818 44.4787C53.4909 46.5812 54.5454 49.155 54.5454 52.2C54.5454 55.245 53.4909 57.8187 51.3818 59.9212C49.2727 62.0238 46.6909 63.075 43.6364 63.075ZM8.72727 87C6.32727 87 4.27345 86.1488 2.56582 84.4465C0.858182 82.7442 0.00290909 80.6954 0 78.3V26.1C0 23.7075 0.855273 21.6601 2.56582 19.9578C4.27636 18.2555 6.33018 17.4029 8.72727 17.4H22.4727L27.9273 11.5275C28.7273 10.6575 29.6916 9.96875 30.8204 9.46125C31.9491 8.95375 33.1302 8.7 34.3636 8.7H56.7273C57.9636 8.7 59.0007 9.1176 59.8385 9.9528C60.6764 10.788 61.0938 11.8204 61.0909 13.05V19.575C61.0909 21.3875 61.728 22.9289 63.0022 24.1991C64.2764 25.4692 65.8211 26.1029 67.6364 26.1H69.8182V28.275C69.8182 30.0875 70.4553 31.6288 71.7294 32.899C73.0036 34.1692 74.5484 34.8029 76.3636 34.8H82.9091C84.1454 34.8 85.1825 35.2176 86.0203 36.0528C86.8582 36.888 87.2756 37.9204 87.2727 39.15V78.3C87.2727 80.6925 86.4189 82.7413 84.7113 84.4465C83.0036 86.1517 80.9483 87.0029 78.5454 87H8.72727Z" fill="#5D2B2C"/>
</svg>
