<svg width="36" height="36" viewBox="0 0 36 36" fill="none" xmlns="http://www.w3.org/2000/svg">
<path d="M17.1 18.9V21.6C17.1 21.855 17.1864 22.0689 17.3592 22.2417C17.532 22.4145 17.7456 22.5006 18 22.5C18.255 22.5 18.4689 22.4136 18.6417 22.2408C18.8145 22.068 18.9006 21.8544 18.9 21.6V18.9H21.6C21.855 18.9 22.0689 18.8136 22.2417 18.6408C22.4145 18.468 22.5006 18.2544 22.5 18C22.5 17.745 22.4136 17.5314 22.2408 17.3592C22.068 17.187 21.8544 17.1006 21.6 17.1H18.9V14.4C18.9 14.145 18.8136 13.9314 18.6408 13.7592C18.468 13.587 18.2544 13.5006 18 13.5C17.745 13.5 17.5314 13.5864 17.3592 13.7592C17.187 13.932 17.1006 14.1456 17.1 14.4V17.1H14.4C14.145 17.1 13.9314 17.1864 13.7592 17.3592C13.587 17.532 13.5006 17.7456 13.5 18C13.5 18.255 13.5864 18.4689 13.7592 18.6417C13.932 18.8145 14.1456 18.9006 14.4 18.9H17.1ZM18 27C16.755 27 15.585 26.7636 14.49 26.2908C13.395 25.818 12.4425 25.1769 11.6325 24.3675C10.8225 23.5575 10.1814 22.605 9.7092 21.51C9.237 20.415 9.0006 19.245 9 18C9 16.755 9.2364 15.585 9.7092 14.49C10.182 13.395 10.8231 12.4425 11.6325 11.6325C12.4425 10.8225 13.395 10.1814 14.49 9.7092C15.585 9.237 16.755 9.0006 18 9C19.245 9 20.415 9.2364 21.51 9.7092C22.605 10.182 23.5575 10.8231 24.3675 11.6325C25.1775 12.4425 25.8189 13.395 26.2917 14.49C26.7645 15.585 27.0006 16.755 27 18C27 19.245 26.7636 20.415 26.2908 21.51C25.818 22.605 25.1769 23.5575 24.3675 24.3675C23.5575 25.1775 22.605 25.8189 21.51 26.2917C20.415 26.7645 19.245 27.0006 18 27ZM18 25.2C20.01 25.2 21.7125 24.5025 23.1075 23.1075C24.5025 21.7125 25.2 20.01 25.2 18C25.2 15.99 24.5025 14.2875 23.1075 12.8925C21.7125 11.4975 20.01 10.8 18 10.8C15.99 10.8 14.2875 11.4975 12.8925 12.8925C11.4975 14.2875 10.8 15.99 10.8 18C10.8 20.01 11.4975 21.7125 12.8925 23.1075C14.2875 24.5025 15.99 25.2 18 25.2Z" fill="#5D2B2C"/>
</svg>
