<svg width="103" height="108" viewBox="0 0 103 108" fill="none" xmlns="http://www.w3.org/2000/svg">
<path d="M48 0C38.5065 0 29.2262 2.81515 21.3326 8.08946C13.4391 13.3638 7.28681 20.8603 3.6538 29.6312C0.0207972 38.402 -0.929762 48.0532 0.922328 57.3643C2.77442 66.6754 7.34597 75.2282 14.0589 81.9411C20.7718 88.654 29.3246 93.2256 38.6357 95.0777C47.9468 96.9298 57.598 95.9792 66.3688 92.3462C75.1397 88.7132 82.6362 82.5609 87.9105 74.6674C93.1848 66.7738 96 57.4935 96 48C95.9866 35.2737 90.9251 23.0725 81.9263 14.0737C72.9274 5.07488 60.7263 0.0134392 48 0ZM23.1139 80.0769C25.7849 75.8994 29.4647 72.4616 33.8138 70.0803C38.163 67.6989 43.0416 66.4507 48 66.4507C52.9584 66.4507 57.8371 67.6989 62.1862 70.0803C66.5354 72.4616 70.2151 75.8994 72.8862 80.0769C65.7708 85.6107 57.014 88.6151 48 88.6151C38.9861 88.6151 30.2292 85.6107 23.1139 80.0769ZM33.2308 44.3077C33.2308 41.3866 34.097 38.5311 35.7198 36.1023C37.3427 33.6736 39.6493 31.7805 42.3481 30.6627C45.0468 29.5448 48.0164 29.2524 50.8813 29.8222C53.7463 30.3921 56.3779 31.7987 58.4434 33.8643C60.5089 35.9298 61.9156 38.5614 62.4854 41.4263C63.0553 44.2913 62.7628 47.2609 61.645 49.9596C60.5271 52.6583 58.6341 54.965 56.2054 56.5878C53.7766 58.2107 50.9211 59.0769 48 59.0769C44.083 59.0769 40.3264 57.5209 37.5566 54.7511C34.7868 51.9813 33.2308 48.2247 33.2308 44.3077ZM78.3508 74.9585C74.2328 68.9911 68.4424 64.3745 61.7077 61.6892C65.3253 58.8399 67.9651 54.9341 69.26 50.5149C70.5549 46.0957 70.4405 41.3829 68.9327 37.0317C67.4249 32.6806 64.5987 28.9075 60.8471 26.237C57.0955 23.5666 52.605 22.1316 48 22.1316C43.395 22.1316 38.9045 23.5666 35.1529 26.237C31.4013 28.9075 28.5751 32.6806 27.0673 37.0317C25.5596 41.3829 25.4452 46.0957 26.74 50.5149C28.0349 54.9341 30.6747 58.8399 34.2923 61.6892C27.5576 64.3745 21.7672 68.9911 17.6492 74.9585C12.4457 69.1069 9.04466 61.8759 7.85561 54.1362C6.66657 46.3964 7.74023 38.478 10.9473 31.3343C14.1544 24.1906 19.3582 18.1264 25.932 13.8717C32.5059 9.61705 40.1695 7.35344 48 7.35344C55.8305 7.35344 63.4942 9.61705 70.068 13.8717C76.6418 18.1264 81.8456 24.1906 85.0527 31.3343C88.2598 38.478 89.3335 46.3964 88.1444 54.1362C86.9554 61.8759 83.5543 69.1069 78.3508 74.9585Z" fill="#5D2B2C"/>
<path d="M76.4 84.6V89.4C76.4 89.8533 76.5536 90.2336 76.8608 90.5408C77.168 90.848 77.5477 91.0011 78 91C78.4533 91 78.8336 90.8464 79.1408 90.5392C79.448 90.232 79.6011 89.8523 79.6 89.4V84.6H84.4C84.8533 84.6 85.2336 84.4464 85.5408 84.1392C85.848 83.832 86.0011 83.4523 86 83C86 82.5467 85.8464 82.1669 85.5392 81.8608C85.232 81.5547 84.8523 81.4011 84.4 81.4H79.6V76.6C79.6 76.1467 79.4464 75.7669 79.1392 75.4608C78.832 75.1547 78.4523 75.0011 78 75C77.5467 75 77.1669 75.1536 76.8608 75.4608C76.5547 75.768 76.4011 76.1477 76.4 76.6V81.4H71.6C71.1467 81.4 70.7669 81.5536 70.4608 81.8608C70.1547 82.168 70.0011 82.5477 70 83C70 83.4533 70.1536 83.8336 70.4608 84.1408C70.768 84.448 71.1477 84.6011 71.6 84.6H76.4ZM78 99C75.7867 99 73.7067 98.5797 71.76 97.7392C69.8133 96.8987 68.12 95.7589 66.68 94.32C65.24 92.88 64.1003 91.1867 63.2608 89.24C62.4213 87.2933 62.0011 85.2133 62 83C62 80.7867 62.4203 78.7067 63.2608 76.76C64.1013 74.8133 65.2411 73.12 66.68 71.68C68.12 70.24 69.8133 69.1003 71.76 68.2608C73.7067 67.4213 75.7867 67.0011 78 67C80.2133 67 82.2933 67.4203 84.24 68.2608C86.1867 69.1013 87.88 70.2411 89.32 71.68C90.76 73.12 91.9003 74.8133 92.7408 76.76C93.5813 78.7067 94.0011 80.7867 94 83C94 85.2133 93.5797 87.2933 92.7392 89.24C91.8987 91.1867 90.7589 92.88 89.32 94.32C87.88 95.76 86.1867 96.9003 84.24 97.7408C82.2933 98.5813 80.2133 99.0011 78 99ZM78 95.8C81.5733 95.8 84.6 94.56 87.08 92.08C89.56 89.6 90.8 86.5733 90.8 83C90.8 79.4267 89.56 76.4 87.08 73.92C84.6 71.44 81.5733 70.2 78 70.2C74.4267 70.2 71.4 71.44 68.92 73.92C66.44 76.4 65.2 79.4267 65.2 83C65.2 86.5733 66.44 89.6 68.92 92.08C71.4 94.56 74.4267 95.8 78 95.8Z" fill="#5D2B2C"/>
<path fill-rule="evenodd" clip-rule="evenodd" d="M78 95.8C81.5733 95.8 84.6 94.56 87.08 92.08C89.56 89.6 90.8 86.5733 90.8 83C90.8 79.4267 89.56 76.4 87.08 73.92C84.6 71.44 81.5733 70.2 78 70.2C74.4267 70.2 71.4 71.44 68.92 73.92C66.44 76.4 65.2 79.4267 65.2 83C65.2 86.5733 66.44 89.6 68.92 92.08C71.4 94.56 74.4267 95.8 78 95.8ZM76.4 89.4V84.6H71.6C71.1477 84.6011 70.768 84.448 70.4608 84.1408C70.1536 83.8336 70 83.4533 70 83C70.0011 82.5477 70.1547 82.168 70.4608 81.8608C70.7669 81.5536 71.1467 81.4 71.6 81.4H76.4V76.6C76.4011 76.1477 76.5547 75.768 76.8608 75.4608C77.1669 75.1536 77.5467 75 78 75C78.4523 75.0011 78.832 75.1547 79.1392 75.4608C79.4464 75.7669 79.6 76.1467 79.6 76.6V81.4H84.4C84.8523 81.4011 85.232 81.5547 85.5392 81.8608C85.8464 82.1669 86 82.5467 86 83C86.0011 83.4523 85.848 83.832 85.5408 84.1392C85.2336 84.4464 84.8533 84.6 84.4 84.6H79.6V89.4C79.6011 89.8523 79.448 90.232 79.1408 90.5392C78.8336 90.8464 78.4533 91 78 91C77.5477 91.0011 77.168 90.848 76.8608 90.5408C76.5536 90.2336 76.4 89.8533 76.4 89.4Z" fill="white"/>
</svg>
