<svg width="24" height="24" viewBox="0 0 24 24" fill="none" xmlns="http://www.w3.org/2000/svg">
<path d="M13.2128 8.38298L19.383 14.5532C19.4681 14.6383 19.5316 14.7302 19.5736 14.8289C19.6156 14.9277 19.6372 15.0343 19.6383 15.1489C19.6383 15.3759 19.56 15.5745 19.4034 15.7447C19.2468 15.9149 19.0414 16 18.7872 16L5.85107 16C5.59575 16 5.38979 15.9149 5.2332 15.7447C5.0766 15.5745 4.99887 15.3759 5.00001 15.1489C5.00001 15.0922 5.08511 14.8936 5.25533 14.5532L11.4255 8.38298C11.5674 8.24113 11.7092 8.14184 11.8511 8.08511C11.9929 8.02837 12.1489 8 12.3192 8C12.4894 8 12.6454 8.02837 12.7872 8.08511C12.9291 8.14184 13.0709 8.24113 13.2128 8.38298Z" fill="black"/>
</svg>
