<svg width="36" height="37" viewBox="0 0 36 37" fill="none" xmlns="http://www.w3.org/2000/svg">
<path d="M20.3227 8.35878L20.3227 34.1886C20.3227 34.8435 20.1011 35.3921 19.6579 35.8343C19.2147 36.2766 18.6669 36.4985 18.0144 36.5C17.3604 36.5 16.8117 36.2781 16.3685 35.8343C15.9253 35.3905 15.7045 34.842 15.7061 34.1886L15.7061 8.35878L4.39523 19.6846C3.93356 20.1469 3.39495 20.3688 2.77939 20.3503C2.16384 20.3318 1.62523 20.0906 1.16356 19.6268C0.740372 19.1645 0.519539 18.6252 0.501072 18.0088C0.482605 17.3925 0.703438 16.8532 1.16356 16.3909L16.3986 1.13567C16.6294 0.904533 16.8795 0.740421 17.1488 0.643345C17.4181 0.546265 17.7066 0.498497 18.0144 0.500038C18.3222 0.500038 18.6107 0.547806 18.88 0.643345C19.1493 0.73888 19.3994 0.902992 19.6302 1.13567L34.8652 16.3909C35.2884 16.8146 35.5 17.3439 35.5 17.9788C35.5 18.6137 35.2884 19.163 34.8652 19.6268C34.4035 20.0891 33.8549 20.3202 33.2194 20.3202C32.5838 20.3202 32.036 20.0891 31.5758 19.6268L20.3227 8.35878Z" fill="black"/>
</svg>
