<svg width="24" height="24" viewBox="0 0 24 24" fill="none" xmlns="http://www.w3.org/2000/svg">
<path d="M11.4255 15.617L5.25532 9.44681C5.17021 9.3617 5.10667 9.26979 5.06468 9.17106C5.0227 9.07234 5.00113 8.96567 5 8.85106C5 8.62411 5.0783 8.42553 5.23489 8.25532C5.39149 8.08511 5.59688 8 5.85106 8H18.7872C19.0426 8 19.2485 8.08511 19.4051 8.25532C19.5617 8.42553 19.6394 8.62411 19.6383 8.85106C19.6383 8.9078 19.5532 9.10638 19.383 9.44681L13.2128 15.617C13.0709 15.7589 12.9291 15.8582 12.7872 15.9149C12.6454 15.9716 12.4894 16 12.3191 16C12.1489 16 11.9929 15.9716 11.8511 15.9149C11.7092 15.8582 11.5674 15.7589 11.4255 15.617Z" fill="black"/>
</svg>
