<svg width="328" height="177" viewBox="0 0 328 177" fill="none" xmlns="http://www.w3.org/2000/svg">
<g clip-path="url(#clip0_355_3461)">
<path d="M57 146.025H326" stroke="black"/>
<path d="M90.625 151.335V146.025" stroke="black"/>
<path d="M78.4873 163.874V173.875H77.7285V164.927L75.4795 165.932V165.146L78.3574 163.874H78.4873ZM90.0693 172.549V168.522C90.0693 168.176 90.0101 167.896 89.8916 167.682C89.7731 167.463 89.5999 167.303 89.3721 167.203C89.1442 167.103 88.8639 167.053 88.5312 167.053C88.2168 167.053 87.9365 167.117 87.6904 167.244C87.4489 167.367 87.2598 167.54 87.123 167.764C86.9909 167.982 86.9248 168.235 86.9248 168.522L86.166 168.516C86.166 168.233 86.223 167.962 86.3369 167.702C86.4508 167.438 86.6126 167.205 86.8223 167.005C87.0319 166.8 87.2826 166.638 87.5742 166.52C87.8704 166.401 88.1986 166.342 88.5586 166.342C89.0007 166.342 89.3926 166.412 89.7344 166.554C90.0762 166.695 90.3428 166.927 90.5342 167.251C90.7301 167.575 90.8281 168.003 90.8281 168.536V172.316C90.8281 172.576 90.8441 172.843 90.876 173.116C90.9124 173.39 90.9603 173.613 91.0195 173.786V173.875H90.2129C90.1628 173.715 90.1263 173.513 90.1035 173.267C90.0807 173.016 90.0693 172.777 90.0693 172.549ZM90.2266 169.555L90.2471 170.204H88.9346C88.5791 170.204 88.2669 170.243 87.998 170.32C87.7292 170.398 87.5036 170.509 87.3213 170.655C87.1436 170.801 87.0091 170.974 86.918 171.175C86.8268 171.375 86.7812 171.603 86.7812 171.858C86.7812 172.187 86.8337 172.455 86.9385 172.665C87.0433 172.87 87.196 173.023 87.3965 173.123C87.6016 173.219 87.8454 173.267 88.1279 173.267C88.5016 173.267 88.8298 173.194 89.1123 173.048C89.3994 172.897 89.6341 172.699 89.8164 172.453C89.9987 172.202 90.1172 171.938 90.1719 171.66L90.377 172.125C90.3314 172.335 90.2471 172.549 90.124 172.768C90.001 172.986 89.8415 173.191 89.6455 173.383C89.4495 173.57 89.2171 173.722 88.9482 173.841C88.6794 173.959 88.3763 174.019 88.0391 174.019C87.6335 174.019 87.278 173.941 86.9727 173.786C86.6719 173.631 86.4372 173.396 86.2686 173.082C86.1045 172.768 86.0225 172.38 86.0225 171.92C86.0225 171.578 86.0794 171.264 86.1934 170.977C86.3118 170.689 86.4873 170.441 86.7197 170.231C86.9521 170.017 87.2438 169.851 87.5947 169.732C87.9456 169.614 88.3535 169.555 88.8184 169.555H90.2266ZM94.2539 163.375V173.875H93.4951V163.375H94.2539ZM105.624 163.922V164.4L102.083 173.875H101.283L104.811 164.633H100.101V163.922H105.624Z" fill="black"/>
<path d="M157.875 151.335V146.025" stroke="black"/>
<path d="M143.696 171.229C143.696 171.831 143.578 172.339 143.341 172.754C143.104 173.169 142.785 173.483 142.384 173.697C141.983 173.907 141.534 174.012 141.037 174.012C140.536 174.012 140.085 173.907 139.684 173.697C139.283 173.483 138.964 173.171 138.727 172.761C138.494 172.346 138.378 171.836 138.378 171.229C138.378 170.838 138.444 170.478 138.576 170.149C138.708 169.821 138.893 169.539 139.13 169.302C139.367 169.065 139.645 168.88 139.964 168.748C140.287 168.611 140.641 168.543 141.023 168.543C141.529 168.543 141.983 168.659 142.384 168.892C142.789 169.124 143.108 169.441 143.341 169.842C143.578 170.243 143.696 170.705 143.696 171.229ZM142.931 171.236C142.931 170.812 142.846 170.443 142.678 170.129C142.514 169.81 142.288 169.564 142.001 169.391C141.714 169.213 141.388 169.124 141.023 169.124C140.654 169.124 140.326 169.213 140.039 169.391C139.757 169.564 139.535 169.81 139.376 170.129C139.216 170.443 139.137 170.812 139.137 171.236C139.137 171.669 139.216 172.041 139.376 172.351C139.54 172.656 139.763 172.891 140.046 173.055C140.333 173.214 140.666 173.294 141.044 173.294C141.413 173.294 141.739 173.214 142.021 173.055C142.304 172.891 142.525 172.656 142.685 172.351C142.849 172.045 142.931 171.674 142.931 171.236ZM143.484 166.485C143.484 166.973 143.375 167.406 143.156 167.784C142.938 168.162 142.644 168.461 142.274 168.68C141.905 168.894 141.488 169.001 141.023 169.001C140.559 169.001 140.142 168.894 139.772 168.68C139.403 168.461 139.112 168.162 138.897 167.784C138.688 167.406 138.583 166.973 138.583 166.485C138.583 165.907 138.688 165.417 138.897 165.016C139.112 164.615 139.403 164.309 139.772 164.1C140.142 163.89 140.559 163.785 141.023 163.785C141.493 163.785 141.912 163.89 142.281 164.1C142.655 164.309 142.949 164.615 143.163 165.016C143.377 165.417 143.484 165.907 143.484 166.485ZM142.726 166.479C142.726 166.091 142.65 165.749 142.5 165.453C142.354 165.157 142.151 164.924 141.892 164.756C141.636 164.583 141.347 164.496 141.023 164.496C140.7 164.496 140.41 164.576 140.155 164.735C139.905 164.895 139.706 165.123 139.561 165.419C139.419 165.715 139.349 166.068 139.349 166.479C139.349 166.87 139.419 167.212 139.561 167.504C139.702 167.791 139.9 168.014 140.155 168.174C140.41 168.329 140.702 168.406 141.03 168.406C141.354 168.406 141.643 168.329 141.898 168.174C142.158 168.014 142.361 167.791 142.507 167.504C142.653 167.212 142.726 166.87 142.726 166.479ZM153.364 172.549V168.522C153.364 168.176 153.305 167.896 153.187 167.682C153.068 167.463 152.895 167.303 152.667 167.203C152.439 167.103 152.159 167.053 151.826 167.053C151.512 167.053 151.231 167.117 150.985 167.244C150.744 167.367 150.555 167.54 150.418 167.764C150.286 167.982 150.22 168.235 150.22 168.522L149.461 168.516C149.461 168.233 149.518 167.962 149.632 167.702C149.746 167.438 149.908 167.205 150.117 167.005C150.327 166.8 150.577 166.638 150.869 166.52C151.165 166.401 151.493 166.342 151.854 166.342C152.296 166.342 152.688 166.412 153.029 166.554C153.371 166.695 153.638 166.927 153.829 167.251C154.025 167.575 154.123 168.003 154.123 168.536V172.316C154.123 172.576 154.139 172.843 154.171 173.116C154.207 173.39 154.255 173.613 154.314 173.786V173.875H153.508C153.458 173.715 153.421 173.513 153.398 173.267C153.376 173.016 153.364 172.777 153.364 172.549ZM153.521 169.555L153.542 170.204H152.229C151.874 170.204 151.562 170.243 151.293 170.32C151.024 170.398 150.799 170.509 150.616 170.655C150.438 170.801 150.304 170.974 150.213 171.175C150.122 171.375 150.076 171.603 150.076 171.858C150.076 172.187 150.129 172.455 150.233 172.665C150.338 172.87 150.491 173.023 150.691 173.123C150.896 173.219 151.14 173.267 151.423 173.267C151.797 173.267 152.125 173.194 152.407 173.048C152.694 172.897 152.929 172.699 153.111 172.453C153.294 172.202 153.412 171.938 153.467 171.66L153.672 172.125C153.626 172.335 153.542 172.549 153.419 172.768C153.296 172.986 153.136 173.191 152.94 173.383C152.744 173.57 152.512 173.722 152.243 173.841C151.974 173.959 151.671 174.019 151.334 174.019C150.928 174.019 150.573 173.941 150.268 173.786C149.967 173.631 149.732 173.396 149.563 173.082C149.399 172.768 149.317 172.38 149.317 171.92C149.317 171.578 149.374 171.264 149.488 170.977C149.607 170.689 149.782 170.441 150.015 170.231C150.247 170.017 150.539 169.851 150.89 169.732C151.241 169.614 151.648 169.555 152.113 169.555H153.521ZM157.549 163.375V173.875H156.79V163.375H157.549ZM166.978 163.874V173.875H166.219V164.927L163.97 165.932V165.146L166.848 163.874H166.978ZM176.576 170.655V171.366H170.629V170.881L174.478 163.922H175.106L174.266 165.624L171.552 170.655H176.576ZM175.298 163.922V173.875H174.539V163.922H175.298Z" fill="black"/>
<path d="M225.125 151.335V146.025" stroke="black"/>
<path d="M205.679 163.874V173.875H204.92V164.927L202.671 165.932V165.146L205.549 163.874H205.679ZM210.813 168.96L210.205 168.775L210.615 163.922H214.819V164.694H211.265L210.984 168.03C211.126 167.903 211.331 167.782 211.6 167.668C211.868 167.549 212.174 167.49 212.516 167.49C212.889 167.49 213.229 167.565 213.534 167.716C213.84 167.862 214.102 168.074 214.32 168.352C214.539 168.63 214.705 168.967 214.819 169.363C214.938 169.76 214.997 170.206 214.997 170.703C214.997 171.182 214.947 171.621 214.847 172.022C214.746 172.424 214.594 172.774 214.389 173.075C214.184 173.371 213.922 173.602 213.603 173.766C213.284 173.93 212.908 174.012 212.475 174.012C212.142 174.012 211.827 173.957 211.531 173.848C211.24 173.734 210.978 173.563 210.745 173.335C210.513 173.103 210.324 172.813 210.178 172.467C210.036 172.12 209.948 171.717 209.911 171.257H210.636C210.681 171.699 210.782 172.073 210.937 172.378C211.091 172.679 211.297 172.907 211.552 173.062C211.812 173.216 212.117 173.294 212.468 173.294C212.755 173.294 213.008 173.239 213.227 173.13C213.45 173.016 213.637 172.847 213.787 172.624C213.938 172.401 214.049 172.13 214.122 171.811C214.2 171.492 214.238 171.127 214.238 170.717C214.238 170.366 214.197 170.042 214.115 169.746C214.033 169.445 213.912 169.183 213.753 168.96C213.593 168.737 213.397 168.563 213.165 168.44C212.933 168.313 212.668 168.249 212.372 168.249C211.98 168.249 211.67 168.313 211.442 168.44C211.219 168.568 211.009 168.741 210.813 168.96ZM224.569 172.549V168.522C224.569 168.176 224.51 167.896 224.392 167.682C224.273 167.463 224.1 167.303 223.872 167.203C223.644 167.103 223.364 167.053 223.031 167.053C222.717 167.053 222.437 167.117 222.19 167.244C221.949 167.367 221.76 167.54 221.623 167.764C221.491 167.982 221.425 168.235 221.425 168.522L220.666 168.516C220.666 168.233 220.723 167.962 220.837 167.702C220.951 167.438 221.113 167.205 221.322 167.005C221.532 166.8 221.783 166.638 222.074 166.52C222.37 166.401 222.699 166.342 223.059 166.342C223.501 166.342 223.893 166.412 224.234 166.554C224.576 166.695 224.843 166.927 225.034 167.251C225.23 167.575 225.328 168.003 225.328 168.536V172.316C225.328 172.576 225.344 172.843 225.376 173.116C225.412 173.39 225.46 173.613 225.52 173.786V173.875H224.713C224.663 173.715 224.626 173.513 224.604 173.267C224.581 173.016 224.569 172.777 224.569 172.549ZM224.727 169.555L224.747 170.204H223.435C223.079 170.204 222.767 170.243 222.498 170.32C222.229 170.398 222.004 170.509 221.821 170.655C221.644 170.801 221.509 170.974 221.418 171.175C221.327 171.375 221.281 171.603 221.281 171.858C221.281 172.187 221.334 172.455 221.438 172.665C221.543 172.87 221.696 173.023 221.896 173.123C222.102 173.219 222.345 173.267 222.628 173.267C223.002 173.267 223.33 173.194 223.612 173.048C223.899 172.897 224.134 172.699 224.316 172.453C224.499 172.202 224.617 171.938 224.672 171.66L224.877 172.125C224.831 172.335 224.747 172.549 224.624 172.768C224.501 172.986 224.341 173.191 224.146 173.383C223.95 173.57 223.717 173.722 223.448 173.841C223.179 173.959 222.876 174.019 222.539 174.019C222.133 174.019 221.778 173.941 221.473 173.786C221.172 173.631 220.937 173.396 220.769 173.082C220.604 172.768 220.522 172.38 220.522 171.92C220.522 171.578 220.579 171.264 220.693 170.977C220.812 170.689 220.987 170.441 221.22 170.231C221.452 170.017 221.744 169.851 222.095 169.732C222.446 169.614 222.854 169.555 223.318 169.555H224.727ZM228.754 163.375V173.875H227.995V163.375H228.754ZM240.213 173.157V173.875H234.929V173.232L237.663 169.527C238.005 169.072 238.276 168.671 238.477 168.324C238.677 167.973 238.821 167.657 238.907 167.374C238.994 167.087 239.037 166.804 239.037 166.526C239.037 166.13 238.971 165.779 238.839 165.474C238.711 165.168 238.522 164.929 238.271 164.756C238.021 164.583 237.713 164.496 237.349 164.496C236.961 164.496 236.631 164.596 236.357 164.797C236.089 164.993 235.879 165.264 235.729 165.61C235.583 165.957 235.51 166.351 235.51 166.793H234.751C234.751 166.242 234.854 165.74 235.059 165.289C235.264 164.833 235.56 164.469 235.947 164.195C236.335 163.922 236.802 163.785 237.349 163.785C237.854 163.785 238.29 163.892 238.654 164.106C239.019 164.316 239.301 164.619 239.502 165.016C239.702 165.412 239.803 165.891 239.803 166.451C239.803 166.747 239.757 167.048 239.666 167.354C239.579 167.659 239.459 167.964 239.304 168.27C239.153 168.57 238.978 168.869 238.777 169.165C238.581 169.457 238.379 169.746 238.169 170.033L235.852 173.157H240.213ZM245.491 163.874V173.875H244.732V164.927L242.483 165.932V165.146L245.361 163.874H245.491Z" fill="black"/>
<path d="M292.375 151.335V146.025" stroke="black"/>
<path d="M274.959 173.157V173.875H269.675V173.233L272.409 169.528C272.751 169.072 273.022 168.671 273.223 168.324C273.423 167.974 273.567 167.657 273.653 167.374C273.74 167.087 273.783 166.805 273.783 166.527C273.783 166.13 273.717 165.779 273.585 165.474C273.457 165.169 273.268 164.929 273.018 164.756C272.767 164.583 272.459 164.496 272.095 164.496C271.707 164.496 271.377 164.597 271.104 164.797C270.835 164.993 270.625 165.264 270.475 165.611C270.329 165.957 270.256 166.351 270.256 166.793H269.497C269.497 166.242 269.6 165.74 269.805 165.289C270.01 164.834 270.306 164.469 270.693 164.196C271.081 163.922 271.548 163.785 272.095 163.785C272.601 163.785 273.036 163.892 273.4 164.107C273.765 164.316 274.048 164.619 274.248 165.016C274.449 165.412 274.549 165.891 274.549 166.451C274.549 166.748 274.503 167.048 274.412 167.354C274.326 167.659 274.205 167.964 274.05 168.27C273.899 168.571 273.724 168.869 273.523 169.165C273.327 169.457 273.125 169.746 272.915 170.033L270.598 173.157H274.959ZM282.268 173.157V173.875H276.983V173.233L279.718 169.528C280.06 169.072 280.331 168.671 280.531 168.324C280.732 167.974 280.875 167.657 280.962 167.374C281.049 167.087 281.092 166.805 281.092 166.527C281.092 166.13 281.026 165.779 280.894 165.474C280.766 165.169 280.577 164.929 280.326 164.756C280.076 164.583 279.768 164.496 279.403 164.496C279.016 164.496 278.686 164.597 278.412 164.797C278.143 164.993 277.934 165.264 277.783 165.611C277.637 165.957 277.564 166.351 277.564 166.793H276.806C276.806 166.242 276.908 165.74 277.113 165.289C277.318 164.834 277.615 164.469 278.002 164.196C278.389 163.922 278.856 163.785 279.403 163.785C279.909 163.785 280.344 163.892 280.709 164.107C281.074 164.316 281.356 164.619 281.557 165.016C281.757 165.412 281.857 165.891 281.857 166.451C281.857 166.748 281.812 167.048 281.721 167.354C281.634 167.659 281.513 167.964 281.358 168.27C281.208 168.571 281.033 168.869 280.832 169.165C280.636 169.457 280.433 169.746 280.224 170.033L277.906 173.157H282.268ZM291.819 172.549V168.523C291.819 168.176 291.76 167.896 291.642 167.682C291.523 167.463 291.35 167.304 291.122 167.203C290.894 167.103 290.614 167.053 290.281 167.053C289.967 167.053 289.687 167.117 289.44 167.244C289.199 167.367 289.01 167.541 288.873 167.764C288.741 167.983 288.675 168.236 288.675 168.523L287.916 168.516C287.916 168.233 287.973 167.962 288.087 167.702C288.201 167.438 288.363 167.206 288.572 167.005C288.782 166.8 289.033 166.638 289.324 166.52C289.62 166.401 289.949 166.342 290.309 166.342C290.751 166.342 291.143 166.413 291.484 166.554C291.826 166.695 292.093 166.928 292.284 167.251C292.48 167.575 292.578 168.003 292.578 168.536V172.317C292.578 172.576 292.594 172.843 292.626 173.116C292.662 173.39 292.71 173.613 292.77 173.786V173.875H291.963C291.913 173.716 291.876 173.513 291.854 173.267C291.831 173.016 291.819 172.777 291.819 172.549ZM291.977 169.555L291.997 170.204H290.685C290.329 170.204 290.017 170.243 289.748 170.321C289.479 170.398 289.254 170.51 289.071 170.656C288.894 170.801 288.759 170.975 288.668 171.175C288.577 171.376 288.531 171.603 288.531 171.859C288.531 172.187 288.584 172.456 288.688 172.665C288.793 172.87 288.946 173.023 289.146 173.123C289.352 173.219 289.595 173.267 289.878 173.267C290.252 173.267 290.58 173.194 290.862 173.048C291.149 172.898 291.384 172.699 291.566 172.453C291.749 172.203 291.867 171.938 291.922 171.66L292.127 172.125C292.081 172.335 291.997 172.549 291.874 172.768C291.751 172.987 291.591 173.192 291.396 173.383C291.2 173.57 290.967 173.723 290.698 173.841C290.429 173.96 290.126 174.019 289.789 174.019C289.383 174.019 289.028 173.941 288.723 173.786C288.422 173.631 288.187 173.397 288.019 173.082C287.854 172.768 287.772 172.38 287.772 171.92C287.772 171.578 287.829 171.264 287.943 170.977C288.062 170.69 288.237 170.441 288.47 170.232C288.702 170.017 288.994 169.851 289.345 169.733C289.696 169.614 290.104 169.555 290.568 169.555H291.977ZM296.004 163.375V173.875H295.245V163.375H296.004ZM307.463 173.157V173.875H302.179V173.233L304.913 169.528C305.255 169.072 305.526 168.671 305.727 168.324C305.927 167.974 306.071 167.657 306.157 167.374C306.244 167.087 306.287 166.805 306.287 166.527C306.287 166.13 306.221 165.779 306.089 165.474C305.961 165.169 305.772 164.929 305.521 164.756C305.271 164.583 304.963 164.496 304.599 164.496C304.211 164.496 303.881 164.597 303.607 164.797C303.339 164.993 303.129 165.264 302.979 165.611C302.833 165.957 302.76 166.351 302.76 166.793H302.001C302.001 166.242 302.104 165.74 302.309 165.289C302.514 164.834 302.81 164.469 303.197 164.196C303.585 163.922 304.052 163.785 304.599 163.785C305.104 163.785 305.54 163.892 305.904 164.107C306.269 164.316 306.551 164.619 306.752 165.016C306.952 165.412 307.053 165.891 307.053 166.451C307.053 166.748 307.007 167.048 306.916 167.354C306.829 167.659 306.709 167.964 306.554 168.27C306.403 168.571 306.228 168.869 306.027 169.165C305.831 169.457 305.629 169.746 305.419 170.033L303.102 173.157H307.463ZM310.458 173.212H310.595C311.201 173.212 311.707 173.11 312.112 172.905C312.518 172.695 312.839 172.401 313.076 172.023C313.313 171.644 313.482 171.205 313.582 170.703C313.687 170.202 313.739 169.657 313.739 169.07V167.675C313.739 167.156 313.691 166.698 313.596 166.301C313.505 165.905 313.375 165.574 313.206 165.31C313.037 165.041 312.837 164.84 312.604 164.708C312.372 164.572 312.119 164.503 311.846 164.503C311.563 164.503 311.31 164.576 311.087 164.722C310.864 164.868 310.674 165.068 310.52 165.323C310.365 165.579 310.246 165.87 310.164 166.198C310.082 166.527 310.041 166.873 310.041 167.238C310.041 167.57 310.077 167.896 310.15 168.215C310.228 168.534 310.34 168.819 310.485 169.07C310.636 169.32 310.82 169.521 311.039 169.671C311.258 169.817 311.511 169.89 311.798 169.89C312.103 169.89 312.381 169.817 312.632 169.671C312.882 169.521 313.097 169.325 313.274 169.083C313.457 168.842 313.596 168.582 313.691 168.304C313.792 168.026 313.846 167.753 313.855 167.484L314.231 167.477C314.231 167.892 314.168 168.288 314.04 168.666C313.912 169.045 313.732 169.379 313.5 169.671C313.272 169.958 313.003 170.186 312.693 170.355C312.388 170.519 312.055 170.601 311.695 170.601C311.299 170.601 310.95 170.51 310.649 170.327C310.353 170.141 310.103 169.892 309.897 169.582C309.697 169.268 309.547 168.912 309.446 168.516C309.346 168.115 309.296 167.7 309.296 167.272C309.296 166.789 309.353 166.337 309.467 165.918C309.581 165.499 309.745 165.13 309.959 164.811C310.178 164.492 310.444 164.241 310.759 164.059C311.073 163.877 311.431 163.785 311.832 163.785C312.288 163.785 312.682 163.883 313.015 164.079C313.352 164.275 313.63 164.551 313.849 164.906C314.067 165.262 314.229 165.681 314.334 166.164C314.443 166.647 314.498 167.178 314.498 167.757V168.536C314.498 169.124 314.462 169.687 314.389 170.225C314.316 170.763 314.19 171.259 314.013 171.715C313.84 172.166 313.605 172.56 313.309 172.898C313.012 173.23 312.641 173.488 312.194 173.67C311.748 173.852 311.215 173.944 310.595 173.944H310.451L310.458 173.212Z" fill="black"/>
<path d="M57 4.42505V146.025" stroke="black"/>
<path d="M51 146.025H57" stroke="black"/>
<path d="M45.1797 148.344V150.012C45.1797 150.75 45.1204 151.391 45.002 151.933C44.888 152.471 44.7194 152.915 44.4961 153.266C44.2773 153.617 44.0085 153.879 43.6895 154.052C43.3704 154.225 43.0081 154.312 42.6025 154.312C42.2835 154.312 41.9896 154.257 41.7207 154.148C41.4518 154.039 41.2103 153.872 40.9961 153.649C40.7865 153.421 40.6064 153.136 40.4561 152.794C40.3102 152.453 40.1986 152.054 40.1211 151.598C40.0482 151.138 40.0117 150.609 40.0117 150.012V148.344C40.0117 147.615 40.071 146.982 40.1895 146.444C40.3079 145.906 40.4788 145.462 40.7021 145.111C40.93 144.76 41.2012 144.5 41.5156 144.332C41.8346 144.163 42.1947 144.079 42.5957 144.079C42.9193 144.079 43.2155 144.133 43.4844 144.243C43.7533 144.352 43.9925 144.518 44.2021 144.742C44.4118 144.96 44.5895 145.238 44.7354 145.576C44.8812 145.913 44.9906 146.314 45.0635 146.779C45.141 147.239 45.1797 147.761 45.1797 148.344ZM44.4209 150.115V148.235C44.4209 147.784 44.3958 147.376 44.3457 147.011C44.3001 146.642 44.2295 146.321 44.1338 146.047C44.0381 145.769 43.915 145.537 43.7646 145.35C43.6143 145.163 43.4411 145.024 43.2451 144.933C43.0537 144.837 42.835 144.79 42.5889 144.79C42.2881 144.79 42.0238 144.862 41.7959 145.008C41.5726 145.154 41.3835 145.373 41.2285 145.665C41.0781 145.952 40.9642 146.312 40.8867 146.745C40.8092 147.173 40.7705 147.672 40.7705 148.242V150.115C40.7705 150.561 40.7956 150.969 40.8457 151.338C40.8958 151.703 40.9688 152.027 41.0645 152.309C41.1647 152.587 41.2878 152.824 41.4336 153.02C41.584 153.211 41.7549 153.355 41.9463 153.451C42.1423 153.546 42.361 153.594 42.6025 153.594C42.9079 153.594 43.1745 153.519 43.4023 153.369C43.6302 153.214 43.8193 152.988 43.9697 152.692C44.1201 152.396 44.2318 152.033 44.3047 151.605C44.3822 151.172 44.4209 150.675 44.4209 150.115Z" fill="black"/>
<path d="M51 110.625H57" stroke="black"/>
<path d="M16.1504 118.057V118.775H10.8662V118.133L13.6006 114.427C13.9424 113.972 14.2135 113.571 14.4141 113.224C14.6146 112.873 14.7581 112.557 14.8447 112.274C14.9313 111.987 14.9746 111.705 14.9746 111.427C14.9746 111.03 14.9085 110.679 14.7764 110.374C14.6488 110.068 14.4596 109.829 14.209 109.656C13.9583 109.483 13.6507 109.396 13.2861 109.396C12.8988 109.396 12.5684 109.497 12.2949 109.697C12.026 109.893 11.8164 110.164 11.666 110.51C11.5202 110.857 11.4473 111.251 11.4473 111.693H10.6885C10.6885 111.142 10.791 110.64 10.9961 110.189C11.2012 109.733 11.4974 109.369 11.8848 109.095C12.2721 108.822 12.7393 108.685 13.2861 108.685C13.792 108.685 14.2272 108.792 14.5918 109.007C14.9564 109.216 15.2389 109.519 15.4395 109.916C15.64 110.312 15.7402 110.791 15.7402 111.351C15.7402 111.648 15.6947 111.948 15.6035 112.254C15.5169 112.559 15.3962 112.864 15.2412 113.17C15.0908 113.47 14.9154 113.769 14.7148 114.065C14.5189 114.357 14.3161 114.646 14.1064 114.933L11.7891 118.057H16.1504ZM19.2549 113.86L18.6465 113.676L19.0566 108.822H23.2607V109.594H19.7061L19.4258 112.93C19.5671 112.803 19.7721 112.682 20.041 112.568C20.3099 112.45 20.6152 112.39 20.957 112.39C21.3307 112.39 21.6702 112.466 21.9756 112.616C22.2809 112.762 22.543 112.974 22.7617 113.252C22.9805 113.53 23.1468 113.867 23.2607 114.263C23.3792 114.66 23.4385 115.107 23.4385 115.603C23.4385 116.082 23.3883 116.522 23.2881 116.923C23.1878 117.324 23.0352 117.675 22.8301 117.975C22.625 118.272 22.363 118.502 22.0439 118.666C21.7249 118.83 21.349 118.912 20.916 118.912C20.5833 118.912 20.2689 118.857 19.9727 118.748C19.681 118.634 19.4189 118.463 19.1865 118.235C18.9541 118.003 18.765 117.713 18.6191 117.367C18.4779 117.021 18.389 116.617 18.3525 116.157H19.0771C19.1227 116.599 19.223 116.973 19.3779 117.278C19.5329 117.579 19.738 117.807 19.9932 117.962C20.2529 118.117 20.5583 118.194 20.9092 118.194C21.1963 118.194 21.4492 118.139 21.668 118.03C21.8913 117.916 22.0781 117.747 22.2285 117.524C22.3789 117.301 22.4906 117.03 22.5635 116.711C22.641 116.392 22.6797 116.027 22.6797 115.617C22.6797 115.266 22.6387 114.942 22.5566 114.646C22.4746 114.345 22.3538 114.083 22.1943 113.86C22.0348 113.637 21.8389 113.464 21.6064 113.341C21.374 113.213 21.1097 113.149 20.8135 113.149C20.4215 113.149 20.1117 113.213 19.8838 113.341C19.6605 113.468 19.4508 113.641 19.2549 113.86ZM30.5625 112.944V114.612C30.5625 115.35 30.5033 115.991 30.3848 116.533C30.2708 117.071 30.1022 117.515 29.8789 117.866C29.6602 118.217 29.3913 118.479 29.0723 118.652C28.7533 118.825 28.391 118.912 27.9854 118.912C27.6663 118.912 27.3724 118.857 27.1035 118.748C26.8346 118.638 26.5931 118.472 26.3789 118.249C26.1693 118.021 25.9893 117.736 25.8389 117.394C25.693 117.052 25.5814 116.654 25.5039 116.198C25.431 115.738 25.3945 115.209 25.3945 114.612V112.944C25.3945 112.215 25.4538 111.581 25.5723 111.044C25.6908 110.506 25.8617 110.062 26.085 109.711C26.3128 109.36 26.584 109.1 26.8984 108.931C27.2174 108.763 27.5775 108.678 27.9785 108.678C28.3021 108.678 28.5983 108.733 28.8672 108.843C29.1361 108.952 29.3753 109.118 29.585 109.342C29.7946 109.56 29.9723 109.838 30.1182 110.176C30.264 110.513 30.3734 110.914 30.4463 111.379C30.5238 111.839 30.5625 112.361 30.5625 112.944ZM29.8037 114.715V112.835C29.8037 112.384 29.7786 111.976 29.7285 111.611C29.6829 111.242 29.6123 110.921 29.5166 110.647C29.4209 110.369 29.2979 110.137 29.1475 109.95C28.9971 109.763 28.8239 109.624 28.6279 109.533C28.4365 109.437 28.2178 109.389 27.9717 109.389C27.6709 109.389 27.4066 109.462 27.1787 109.608C26.9554 109.754 26.7663 109.973 26.6113 110.264C26.4609 110.552 26.347 110.912 26.2695 111.344C26.1921 111.773 26.1533 112.272 26.1533 112.842V114.715C26.1533 115.161 26.1784 115.569 26.2285 115.938C26.2786 116.303 26.3516 116.626 26.4473 116.909C26.5475 117.187 26.6706 117.424 26.8164 117.62C26.9668 117.811 27.1377 117.955 27.3291 118.051C27.5251 118.146 27.7438 118.194 27.9854 118.194C28.2907 118.194 28.5573 118.119 28.7852 117.969C29.013 117.814 29.2021 117.588 29.3525 117.292C29.5029 116.996 29.6146 116.633 29.6875 116.205C29.765 115.772 29.8037 115.275 29.8037 114.715ZM37.8711 112.944V114.612C37.8711 115.35 37.8118 115.991 37.6934 116.533C37.5794 117.071 37.4108 117.515 37.1875 117.866C36.9688 118.217 36.6999 118.479 36.3809 118.652C36.0618 118.825 35.6995 118.912 35.2939 118.912C34.9749 118.912 34.681 118.857 34.4121 118.748C34.1432 118.638 33.9017 118.472 33.6875 118.249C33.4779 118.021 33.2979 117.736 33.1475 117.394C33.0016 117.052 32.89 116.654 32.8125 116.198C32.7396 115.738 32.7031 115.209 32.7031 114.612V112.944C32.7031 112.215 32.7624 111.581 32.8809 111.044C32.9993 110.506 33.1702 110.062 33.3936 109.711C33.6214 109.36 33.8926 109.1 34.207 108.931C34.526 108.763 34.8861 108.678 35.2871 108.678C35.6107 108.678 35.9069 108.733 36.1758 108.843C36.4447 108.952 36.6839 109.118 36.8936 109.342C37.1032 109.56 37.2809 109.838 37.4268 110.176C37.5726 110.513 37.682 110.914 37.7549 111.379C37.8324 111.839 37.8711 112.361 37.8711 112.944ZM37.1123 114.715V112.835C37.1123 112.384 37.0872 111.976 37.0371 111.611C36.9915 111.242 36.9209 110.921 36.8252 110.647C36.7295 110.369 36.6064 110.137 36.4561 109.95C36.3057 109.763 36.1325 109.624 35.9365 109.533C35.7451 109.437 35.5264 109.389 35.2803 109.389C34.9795 109.389 34.7152 109.462 34.4873 109.608C34.264 109.754 34.0749 109.973 33.9199 110.264C33.7695 110.552 33.6556 110.912 33.5781 111.344C33.5007 111.773 33.4619 112.272 33.4619 112.842V114.715C33.4619 115.161 33.487 115.569 33.5371 115.938C33.5872 116.303 33.6602 116.626 33.7559 116.909C33.8561 117.187 33.9792 117.424 34.125 117.62C34.2754 117.811 34.4463 117.955 34.6377 118.051C34.8337 118.146 35.0524 118.194 35.2939 118.194C35.5993 118.194 35.8659 118.119 36.0938 117.969C36.3216 117.814 36.5107 117.588 36.6611 117.292C36.8115 116.996 36.9232 116.633 36.9961 116.205C37.0736 115.772 37.1123 115.275 37.1123 114.715ZM45.1797 112.944V114.612C45.1797 115.35 45.1204 115.991 45.002 116.533C44.888 117.071 44.7194 117.515 44.4961 117.866C44.2773 118.217 44.0085 118.479 43.6895 118.652C43.3704 118.825 43.0081 118.912 42.6025 118.912C42.2835 118.912 41.9896 118.857 41.7207 118.748C41.4518 118.638 41.2103 118.472 40.9961 118.249C40.7865 118.021 40.6064 117.736 40.4561 117.394C40.3102 117.052 40.1986 116.654 40.1211 116.198C40.0482 115.738 40.0117 115.209 40.0117 114.612V112.944C40.0117 112.215 40.071 111.581 40.1895 111.044C40.3079 110.506 40.4788 110.062 40.7021 109.711C40.93 109.36 41.2012 109.1 41.5156 108.931C41.8346 108.763 42.1947 108.678 42.5957 108.678C42.9193 108.678 43.2155 108.733 43.4844 108.843C43.7533 108.952 43.9925 109.118 44.2021 109.342C44.4118 109.56 44.5895 109.838 44.7354 110.176C44.8812 110.513 44.9906 110.914 45.0635 111.379C45.141 111.839 45.1797 112.361 45.1797 112.944ZM44.4209 114.715V112.835C44.4209 112.384 44.3958 111.976 44.3457 111.611C44.3001 111.242 44.2295 110.921 44.1338 110.647C44.0381 110.369 43.915 110.137 43.7646 109.95C43.6143 109.763 43.4411 109.624 43.2451 109.533C43.0537 109.437 42.835 109.389 42.5889 109.389C42.2881 109.389 42.0238 109.462 41.7959 109.608C41.5726 109.754 41.3835 109.973 41.2285 110.264C41.0781 110.552 40.9642 110.912 40.8867 111.344C40.8092 111.773 40.7705 112.272 40.7705 112.842V114.715C40.7705 115.161 40.7956 115.569 40.8457 115.938C40.8958 116.303 40.9688 116.626 41.0645 116.909C41.1647 117.187 41.2878 117.424 41.4336 117.62C41.584 117.811 41.7549 117.955 41.9463 118.051C42.1423 118.146 42.361 118.194 42.6025 118.194C42.9079 118.194 43.1745 118.119 43.4023 117.969C43.6302 117.814 43.8193 117.588 43.9697 117.292C44.1201 116.996 44.2318 116.633 44.3047 116.205C44.3822 115.772 44.4209 115.275 44.4209 114.715Z" fill="black"/>
<path d="M51 75.2251H57" stroke="black"/>
<path d="M11.9463 78.4602L11.3379 78.2756L11.748 73.4221H15.9521V74.1946H12.3975L12.1172 77.5305C12.2585 77.4029 12.4635 77.2821 12.7324 77.1682C13.0013 77.0497 13.3066 76.9905 13.6484 76.9905C14.0221 76.9905 14.3617 77.0657 14.667 77.2161C14.9723 77.3619 15.2344 77.5738 15.4531 77.8518C15.6719 78.1298 15.8382 78.467 15.9521 78.8635C16.0706 79.26 16.1299 79.7066 16.1299 80.2034C16.1299 80.6819 16.0798 81.1217 15.9795 81.5227C15.8792 81.9237 15.7266 82.2747 15.5215 82.5754C15.3164 82.8717 15.0544 83.1018 14.7354 83.2659C14.4163 83.4299 14.0404 83.512 13.6074 83.512C13.2747 83.512 12.9603 83.4573 12.6641 83.3479C12.3724 83.234 12.1104 83.0631 11.8779 82.8352C11.6455 82.6028 11.4564 82.3134 11.3105 81.967C11.1693 81.6207 11.0804 81.2174 11.0439 80.7571H11.7686C11.8141 81.1991 11.9144 81.5728 12.0693 81.8782C12.2243 82.179 12.4294 82.4068 12.6846 82.5618C12.9443 82.7167 13.2497 82.7942 13.6006 82.7942C13.8877 82.7942 14.1406 82.7395 14.3594 82.6301C14.5827 82.5162 14.7695 82.3476 14.9199 82.1243C15.0703 81.901 15.182 81.6298 15.2549 81.3108C15.3324 80.9918 15.3711 80.6272 15.3711 80.217C15.3711 79.8661 15.3301 79.5426 15.248 79.2463C15.166 78.9456 15.0452 78.6835 14.8857 78.4602C14.7262 78.2369 14.5303 78.0637 14.2979 77.9407C14.0654 77.8131 13.8011 77.7493 13.5049 77.7493C13.113 77.7493 12.8031 77.8131 12.5752 77.9407C12.3519 78.0683 12.1423 78.2415 11.9463 78.4602ZM23.2539 77.5442V79.2122C23.2539 79.9504 23.1947 80.5907 23.0762 81.1331C22.9622 81.6708 22.7936 82.1152 22.5703 82.4661C22.3516 82.817 22.0827 83.079 21.7637 83.2522C21.4447 83.4254 21.0824 83.512 20.6768 83.512C20.3577 83.512 20.0638 83.4573 19.7949 83.3479C19.526 83.2385 19.2845 83.0722 19.0703 82.8489C18.8607 82.621 18.6807 82.3362 18.5303 81.9944C18.3844 81.6526 18.2728 81.2538 18.1953 80.7981C18.1224 80.3378 18.0859 79.8092 18.0859 79.2122V77.5442C18.0859 76.815 18.1452 76.1816 18.2637 75.6438C18.3822 75.106 18.5531 74.6617 18.7764 74.3108C19.0042 73.9599 19.2754 73.7001 19.5898 73.5315C19.9089 73.3629 20.2689 73.2786 20.6699 73.2786C20.9935 73.2786 21.2897 73.3333 21.5586 73.4426C21.8275 73.552 22.0667 73.7183 22.2764 73.9417C22.486 74.1604 22.6637 74.4384 22.8096 74.7756C22.9554 75.1129 23.0648 75.5139 23.1377 75.9788C23.2152 76.439 23.2539 76.9609 23.2539 77.5442ZM22.4951 79.3147V77.4348C22.4951 76.9836 22.4701 76.5758 22.4199 76.2112C22.3743 75.842 22.3037 75.5208 22.208 75.2473C22.1123 74.9693 21.9893 74.7369 21.8389 74.55C21.6885 74.3632 21.5153 74.2242 21.3193 74.1331C21.1279 74.0374 20.9092 73.9895 20.6631 73.9895C20.3623 73.9895 20.098 74.0624 19.8701 74.2083C19.6468 74.3541 19.4577 74.5728 19.3027 74.8645C19.1523 75.1516 19.0384 75.5116 18.9609 75.9446C18.8835 76.373 18.8447 76.872 18.8447 77.4417V79.3147C18.8447 79.7613 18.8698 80.1692 18.9199 80.5383C18.9701 80.9029 19.043 81.2265 19.1387 81.509C19.2389 81.787 19.362 82.024 19.5078 82.22C19.6582 82.4114 19.8291 82.5549 20.0205 82.6506C20.2165 82.7463 20.4352 82.7942 20.6768 82.7942C20.9821 82.7942 21.2487 82.719 21.4766 82.5686C21.7044 82.4137 21.8936 82.1881 22.0439 81.8918C22.1943 81.5956 22.306 81.2333 22.3789 80.8049C22.4564 80.372 22.4951 79.8752 22.4951 79.3147ZM30.5625 77.5442V79.2122C30.5625 79.9504 30.5033 80.5907 30.3848 81.1331C30.2708 81.6708 30.1022 82.1152 29.8789 82.4661C29.6602 82.817 29.3913 83.079 29.0723 83.2522C28.7533 83.4254 28.391 83.512 27.9854 83.512C27.6663 83.512 27.3724 83.4573 27.1035 83.3479C26.8346 83.2385 26.5931 83.0722 26.3789 82.8489C26.1693 82.621 25.9893 82.3362 25.8389 81.9944C25.693 81.6526 25.5814 81.2538 25.5039 80.7981C25.431 80.3378 25.3945 79.8092 25.3945 79.2122V77.5442C25.3945 76.815 25.4538 76.1816 25.5723 75.6438C25.6908 75.106 25.8617 74.6617 26.085 74.3108C26.3128 73.9599 26.584 73.7001 26.8984 73.5315C27.2174 73.3629 27.5775 73.2786 27.9785 73.2786C28.3021 73.2786 28.5983 73.3333 28.8672 73.4426C29.1361 73.552 29.3753 73.7183 29.585 73.9417C29.7946 74.1604 29.9723 74.4384 30.1182 74.7756C30.264 75.1129 30.3734 75.5139 30.4463 75.9788C30.5238 76.439 30.5625 76.9609 30.5625 77.5442ZM29.8037 79.3147V77.4348C29.8037 76.9836 29.7786 76.5758 29.7285 76.2112C29.6829 75.842 29.6123 75.5208 29.5166 75.2473C29.4209 74.9693 29.2979 74.7369 29.1475 74.55C28.9971 74.3632 28.8239 74.2242 28.6279 74.1331C28.4365 74.0374 28.2178 73.9895 27.9717 73.9895C27.6709 73.9895 27.4066 74.0624 27.1787 74.2083C26.9554 74.3541 26.7663 74.5728 26.6113 74.8645C26.4609 75.1516 26.347 75.5116 26.2695 75.9446C26.1921 76.373 26.1533 76.872 26.1533 77.4417V79.3147C26.1533 79.7613 26.1784 80.1692 26.2285 80.5383C26.2786 80.9029 26.3516 81.2265 26.4473 81.509C26.5475 81.787 26.6706 82.024 26.8164 82.22C26.9668 82.4114 27.1377 82.5549 27.3291 82.6506C27.5251 82.7463 27.7438 82.7942 27.9854 82.7942C28.2907 82.7942 28.5573 82.719 28.7852 82.5686C29.013 82.4137 29.2021 82.1881 29.3525 81.8918C29.5029 81.5956 29.6146 81.2333 29.6875 80.8049C29.765 80.372 29.8037 79.8752 29.8037 79.3147ZM37.8711 77.5442V79.2122C37.8711 79.9504 37.8118 80.5907 37.6934 81.1331C37.5794 81.6708 37.4108 82.1152 37.1875 82.4661C36.9688 82.817 36.6999 83.079 36.3809 83.2522C36.0618 83.4254 35.6995 83.512 35.2939 83.512C34.9749 83.512 34.681 83.4573 34.4121 83.3479C34.1432 83.2385 33.9017 83.0722 33.6875 82.8489C33.4779 82.621 33.2979 82.3362 33.1475 81.9944C33.0016 81.6526 32.89 81.2538 32.8125 80.7981C32.7396 80.3378 32.7031 79.8092 32.7031 79.2122V77.5442C32.7031 76.815 32.7624 76.1816 32.8809 75.6438C32.9993 75.106 33.1702 74.6617 33.3936 74.3108C33.6214 73.9599 33.8926 73.7001 34.207 73.5315C34.526 73.3629 34.8861 73.2786 35.2871 73.2786C35.6107 73.2786 35.9069 73.3333 36.1758 73.4426C36.4447 73.552 36.6839 73.7183 36.8936 73.9417C37.1032 74.1604 37.2809 74.4384 37.4268 74.7756C37.5726 75.1129 37.682 75.5139 37.7549 75.9788C37.8324 76.439 37.8711 76.9609 37.8711 77.5442ZM37.1123 79.3147V77.4348C37.1123 76.9836 37.0872 76.5758 37.0371 76.2112C36.9915 75.842 36.9209 75.5208 36.8252 75.2473C36.7295 74.9693 36.6064 74.7369 36.4561 74.55C36.3057 74.3632 36.1325 74.2242 35.9365 74.1331C35.7451 74.0374 35.5264 73.9895 35.2803 73.9895C34.9795 73.9895 34.7152 74.0624 34.4873 74.2083C34.264 74.3541 34.0749 74.5728 33.9199 74.8645C33.7695 75.1516 33.6556 75.5116 33.5781 75.9446C33.5007 76.373 33.4619 76.872 33.4619 77.4417V79.3147C33.4619 79.7613 33.487 80.1692 33.5371 80.5383C33.5872 80.9029 33.6602 81.2265 33.7559 81.509C33.8561 81.787 33.9792 82.024 34.125 82.22C34.2754 82.4114 34.4463 82.5549 34.6377 82.6506C34.8337 82.7463 35.0524 82.7942 35.2939 82.7942C35.5993 82.7942 35.8659 82.719 36.0938 82.5686C36.3216 82.4137 36.5107 82.1881 36.6611 81.8918C36.8115 81.5956 36.9232 81.2333 36.9961 80.8049C37.0736 80.372 37.1123 79.8752 37.1123 79.3147ZM45.1797 77.5442V79.2122C45.1797 79.9504 45.1204 80.5907 45.002 81.1331C44.888 81.6708 44.7194 82.1152 44.4961 82.4661C44.2773 82.817 44.0085 83.079 43.6895 83.2522C43.3704 83.4254 43.0081 83.512 42.6025 83.512C42.2835 83.512 41.9896 83.4573 41.7207 83.3479C41.4518 83.2385 41.2103 83.0722 40.9961 82.8489C40.7865 82.621 40.6064 82.3362 40.4561 81.9944C40.3102 81.6526 40.1986 81.2538 40.1211 80.7981C40.0482 80.3378 40.0117 79.8092 40.0117 79.2122V77.5442C40.0117 76.815 40.071 76.1816 40.1895 75.6438C40.3079 75.106 40.4788 74.6617 40.7021 74.3108C40.93 73.9599 41.2012 73.7001 41.5156 73.5315C41.8346 73.3629 42.1947 73.2786 42.5957 73.2786C42.9193 73.2786 43.2155 73.3333 43.4844 73.4426C43.7533 73.552 43.9925 73.7183 44.2021 73.9417C44.4118 74.1604 44.5895 74.4384 44.7354 74.7756C44.8812 75.1129 44.9906 75.5139 45.0635 75.9788C45.141 76.439 45.1797 76.9609 45.1797 77.5442ZM44.4209 79.3147V77.4348C44.4209 76.9836 44.3958 76.5758 44.3457 76.2112C44.3001 75.842 44.2295 75.5208 44.1338 75.2473C44.0381 74.9693 43.915 74.7369 43.7646 74.55C43.6143 74.3632 43.4411 74.2242 43.2451 74.1331C43.0537 74.0374 42.835 73.9895 42.5889 73.9895C42.2881 73.9895 42.0238 74.0624 41.7959 74.2083C41.5726 74.3541 41.3835 74.5728 41.2285 74.8645C41.0781 75.1516 40.9642 75.5116 40.8867 75.9446C40.8092 76.373 40.7705 76.872 40.7705 77.4417V79.3147C40.7705 79.7613 40.7956 80.1692 40.8457 80.5383C40.8958 80.9029 40.9688 81.2265 41.0645 81.509C41.1647 81.787 41.2878 82.024 41.4336 82.22C41.584 82.4114 41.7549 82.5549 41.9463 82.6506C42.1423 82.7463 42.361 82.7942 42.6025 82.7942C42.9079 82.7942 43.1745 82.719 43.4023 82.5686C43.6302 82.4137 43.8193 82.1881 43.9697 81.8918C44.1201 81.5956 44.2318 81.2333 44.3047 80.8049C44.3822 80.372 44.4209 79.8752 44.4209 79.3147Z" fill="black"/>
<path d="M51 39.8252H57" stroke="black"/>
<path d="M16.0615 38.0222V38.5007L12.5205 47.9753H11.7207L15.248 38.7332H10.5381V38.0222H16.0615ZM19.2549 43.0603L18.6465 42.8757L19.0566 38.0222H23.2607V38.7947H19.7061L19.4258 42.1306C19.5671 42.003 19.7721 41.8822 20.041 41.7683C20.3099 41.6498 20.6152 41.5906 20.957 41.5906C21.3307 41.5906 21.6702 41.6658 21.9756 41.8162C22.2809 41.962 22.543 42.1739 22.7617 42.4519C22.9805 42.7299 23.1468 43.0671 23.2607 43.4636C23.3792 43.8601 23.4385 44.3067 23.4385 44.8035C23.4385 45.282 23.3883 45.7218 23.2881 46.1228C23.1878 46.5238 23.0352 46.8748 22.8301 47.1755C22.625 47.4718 22.363 47.7019 22.0439 47.866C21.7249 48.03 21.349 48.1121 20.916 48.1121C20.5833 48.1121 20.2689 48.0574 19.9727 47.948C19.681 47.8341 19.4189 47.6632 19.1865 47.4353C18.9541 47.2029 18.765 46.9135 18.6191 46.5671C18.4779 46.2208 18.389 45.8175 18.3525 45.3572H19.0771C19.1227 45.7992 19.223 46.1729 19.3779 46.4783C19.5329 46.7791 19.738 47.0069 19.9932 47.1619C20.2529 47.3168 20.5583 47.3943 20.9092 47.3943C21.1963 47.3943 21.4492 47.3396 21.668 47.2302C21.8913 47.1163 22.0781 46.9477 22.2285 46.7244C22.3789 46.5011 22.4906 46.2299 22.5635 45.9109C22.641 45.5919 22.6797 45.2273 22.6797 44.8171C22.6797 44.4662 22.6387 44.1427 22.5566 43.8464C22.4746 43.5457 22.3538 43.2836 22.1943 43.0603C22.0348 42.837 21.8389 42.6638 21.6064 42.5408C21.374 42.4132 21.1097 42.3494 20.8135 42.3494C20.4215 42.3494 20.1117 42.4132 19.8838 42.5408C19.6605 42.6684 19.4508 42.8416 19.2549 43.0603ZM30.5625 42.1443V43.8123C30.5625 44.5505 30.5033 45.1908 30.3848 45.7332C30.2708 46.2709 30.1022 46.7153 29.8789 47.0662C29.6602 47.4171 29.3913 47.6791 29.0723 47.8523C28.7533 48.0255 28.391 48.1121 27.9854 48.1121C27.6663 48.1121 27.3724 48.0574 27.1035 47.948C26.8346 47.8386 26.5931 47.6723 26.3789 47.449C26.1693 47.2211 25.9893 46.9363 25.8389 46.5945C25.693 46.2527 25.5814 45.8539 25.5039 45.3982C25.431 44.9379 25.3945 44.4093 25.3945 43.8123V42.1443C25.3945 41.4151 25.4538 40.7817 25.5723 40.2439C25.6908 39.7061 25.8617 39.2618 26.085 38.9109C26.3128 38.56 26.584 38.3002 26.8984 38.1316C27.2174 37.963 27.5775 37.8787 27.9785 37.8787C28.3021 37.8787 28.5983 37.9333 28.8672 38.0427C29.1361 38.1521 29.3753 38.3184 29.585 38.5417C29.7946 38.7605 29.9723 39.0385 30.1182 39.3757C30.264 39.713 30.3734 40.114 30.4463 40.5789C30.5238 41.0391 30.5625 41.561 30.5625 42.1443ZM29.8037 43.9148V42.0349C29.8037 41.5837 29.7786 41.1759 29.7285 40.8113C29.6829 40.4421 29.6123 40.1208 29.5166 39.8474C29.4209 39.5694 29.2979 39.337 29.1475 39.1501C28.9971 38.9633 28.8239 38.8243 28.6279 38.7332C28.4365 38.6375 28.2178 38.5896 27.9717 38.5896C27.6709 38.5896 27.4066 38.6625 27.1787 38.8083C26.9554 38.9542 26.7663 39.1729 26.6113 39.4646C26.4609 39.7517 26.347 40.1117 26.2695 40.5447C26.1921 40.9731 26.1533 41.4721 26.1533 42.0417V43.9148C26.1533 44.3614 26.1784 44.7693 26.2285 45.1384C26.2786 45.503 26.3516 45.8266 26.4473 46.1091C26.5475 46.3871 26.6706 46.6241 26.8164 46.8201C26.9668 47.0115 27.1377 47.155 27.3291 47.2507C27.5251 47.3464 27.7438 47.3943 27.9854 47.3943C28.2907 47.3943 28.5573 47.3191 28.7852 47.1687C29.013 47.0138 29.2021 46.7882 29.3525 46.4919C29.5029 46.1957 29.6146 45.8334 29.6875 45.405C29.765 44.9721 29.8037 44.4753 29.8037 43.9148ZM37.8711 42.1443V43.8123C37.8711 44.5505 37.8118 45.1908 37.6934 45.7332C37.5794 46.2709 37.4108 46.7153 37.1875 47.0662C36.9688 47.4171 36.6999 47.6791 36.3809 47.8523C36.0618 48.0255 35.6995 48.1121 35.2939 48.1121C34.9749 48.1121 34.681 48.0574 34.4121 47.948C34.1432 47.8386 33.9017 47.6723 33.6875 47.449C33.4779 47.2211 33.2979 46.9363 33.1475 46.5945C33.0016 46.2527 32.89 45.8539 32.8125 45.3982C32.7396 44.9379 32.7031 44.4093 32.7031 43.8123V42.1443C32.7031 41.4151 32.7624 40.7817 32.8809 40.2439C32.9993 39.7061 33.1702 39.2618 33.3936 38.9109C33.6214 38.56 33.8926 38.3002 34.207 38.1316C34.526 37.963 34.8861 37.8787 35.2871 37.8787C35.6107 37.8787 35.9069 37.9333 36.1758 38.0427C36.4447 38.1521 36.6839 38.3184 36.8936 38.5417C37.1032 38.7605 37.2809 39.0385 37.4268 39.3757C37.5726 39.713 37.682 40.114 37.7549 40.5789C37.8324 41.0391 37.8711 41.561 37.8711 42.1443ZM37.1123 43.9148V42.0349C37.1123 41.5837 37.0872 41.1759 37.0371 40.8113C36.9915 40.4421 36.9209 40.1208 36.8252 39.8474C36.7295 39.5694 36.6064 39.337 36.4561 39.1501C36.3057 38.9633 36.1325 38.8243 35.9365 38.7332C35.7451 38.6375 35.5264 38.5896 35.2803 38.5896C34.9795 38.5896 34.7152 38.6625 34.4873 38.8083C34.264 38.9542 34.0749 39.1729 33.9199 39.4646C33.7695 39.7517 33.6556 40.1117 33.5781 40.5447C33.5007 40.9731 33.4619 41.4721 33.4619 42.0417V43.9148C33.4619 44.3614 33.487 44.7693 33.5371 45.1384C33.5872 45.503 33.6602 45.8266 33.7559 46.1091C33.8561 46.3871 33.9792 46.6241 34.125 46.8201C34.2754 47.0115 34.4463 47.155 34.6377 47.2507C34.8337 47.3464 35.0524 47.3943 35.2939 47.3943C35.5993 47.3943 35.8659 47.3191 36.0938 47.1687C36.3216 47.0138 36.5107 46.7882 36.6611 46.4919C36.8115 46.1957 36.9232 45.8334 36.9961 45.405C37.0736 44.9721 37.1123 44.4753 37.1123 43.9148ZM45.1797 42.1443V43.8123C45.1797 44.5505 45.1204 45.1908 45.002 45.7332C44.888 46.2709 44.7194 46.7153 44.4961 47.0662C44.2773 47.4171 44.0085 47.6791 43.6895 47.8523C43.3704 48.0255 43.0081 48.1121 42.6025 48.1121C42.2835 48.1121 41.9896 48.0574 41.7207 47.948C41.4518 47.8386 41.2103 47.6723 40.9961 47.449C40.7865 47.2211 40.6064 46.9363 40.4561 46.5945C40.3102 46.2527 40.1986 45.8539 40.1211 45.3982C40.0482 44.9379 40.0117 44.4093 40.0117 43.8123V42.1443C40.0117 41.4151 40.071 40.7817 40.1895 40.2439C40.3079 39.7061 40.4788 39.2618 40.7021 38.9109C40.93 38.56 41.2012 38.3002 41.5156 38.1316C41.8346 37.963 42.1947 37.8787 42.5957 37.8787C42.9193 37.8787 43.2155 37.9333 43.4844 38.0427C43.7533 38.1521 43.9925 38.3184 44.2021 38.5417C44.4118 38.7605 44.5895 39.0385 44.7354 39.3757C44.8812 39.713 44.9906 40.114 45.0635 40.5789C45.141 41.0391 45.1797 41.561 45.1797 42.1443ZM44.4209 43.9148V42.0349C44.4209 41.5837 44.3958 41.1759 44.3457 40.8113C44.3001 40.4421 44.2295 40.1208 44.1338 39.8474C44.0381 39.5694 43.915 39.337 43.7646 39.1501C43.6143 38.9633 43.4411 38.8243 43.2451 38.7332C43.0537 38.6375 42.835 38.5896 42.5889 38.5896C42.2881 38.5896 42.0238 38.6625 41.7959 38.8083C41.5726 38.9542 41.3835 39.1729 41.2285 39.4646C41.0781 39.7517 40.9642 40.1117 40.8867 40.5447C40.8092 40.9731 40.7705 41.4721 40.7705 42.0417V43.9148C40.7705 44.3614 40.7956 44.7693 40.8457 45.1384C40.8958 45.503 40.9688 45.8266 41.0645 46.1091C41.1647 46.3871 41.2878 46.6241 41.4336 46.8201C41.584 47.0115 41.7549 47.155 41.9463 47.2507C42.1423 47.3464 42.361 47.3943 42.6025 47.3943C42.9079 47.3943 43.1745 47.3191 43.4023 47.1687C43.6302 47.0138 43.8193 46.7882 43.9697 46.4919C44.1201 46.1957 44.2318 45.8334 44.3047 45.405C44.3822 44.9721 44.4209 44.4753 44.4209 43.9148Z" fill="black"/>
<path d="M51 4.42505H57" stroke="black"/>
<path d="M6.81152 6.28711V16.2881H6.05273V7.33984L3.80371 8.34473V7.55859L6.68164 6.28711H6.81152ZM15.9453 10.457V12.125C15.9453 12.8633 15.8861 13.5036 15.7676 14.0459C15.6536 14.5837 15.485 15.028 15.2617 15.3789C15.043 15.7298 14.7741 15.9919 14.4551 16.165C14.1361 16.3382 13.7738 16.4248 13.3682 16.4248C13.0492 16.4248 12.7552 16.3701 12.4863 16.2607C12.2174 16.1514 11.9759 15.985 11.7617 15.7617C11.5521 15.5339 11.3721 15.249 11.2217 14.9072C11.0758 14.5654 10.9642 14.1667 10.8867 13.7109C10.8138 13.2507 10.7773 12.722 10.7773 12.125V10.457C10.7773 9.72786 10.8366 9.0944 10.9551 8.55664C11.0736 8.01888 11.2445 7.57454 11.4678 7.22363C11.6956 6.87272 11.9668 6.61296 12.2812 6.44434C12.6003 6.27572 12.9603 6.19141 13.3613 6.19141C13.6849 6.19141 13.9811 6.24609 14.25 6.35547C14.5189 6.46484 14.7581 6.63118 14.9678 6.85449C15.1774 7.07324 15.3551 7.35124 15.501 7.68848C15.6468 8.02572 15.7562 8.42676 15.8291 8.8916C15.9066 9.35189 15.9453 9.8737 15.9453 10.457ZM15.1865 12.2275V10.3477C15.1865 9.89648 15.1615 9.48861 15.1113 9.12402C15.0658 8.75488 14.9951 8.43359 14.8994 8.16016C14.8037 7.88216 14.6807 7.64974 14.5303 7.46289C14.3799 7.27604 14.2067 7.13704 14.0107 7.0459C13.8193 6.9502 13.6006 6.90234 13.3545 6.90234C13.0537 6.90234 12.7894 6.97526 12.5615 7.12109C12.3382 7.26693 12.1491 7.48568 11.9941 7.77734C11.8438 8.06445 11.7298 8.42448 11.6523 8.85742C11.5749 9.28581 11.5361 9.78483 11.5361 10.3545V12.2275C11.5361 12.6742 11.5612 13.082 11.6113 13.4512C11.6615 13.8158 11.7344 14.1393 11.8301 14.4219C11.9303 14.6999 12.0534 14.9368 12.1992 15.1328C12.3496 15.3242 12.5205 15.4678 12.7119 15.5635C12.9079 15.6592 13.1266 15.707 13.3682 15.707C13.6735 15.707 13.9401 15.6318 14.168 15.4814C14.3958 15.3265 14.585 15.1009 14.7354 14.8047C14.8857 14.5085 14.9974 14.1462 15.0703 13.7178C15.1478 13.2848 15.1865 12.7881 15.1865 12.2275ZM23.2539 10.457V12.125C23.2539 12.8633 23.1947 13.5036 23.0762 14.0459C22.9622 14.5837 22.7936 15.028 22.5703 15.3789C22.3516 15.7298 22.0827 15.9919 21.7637 16.165C21.4447 16.3382 21.0824 16.4248 20.6768 16.4248C20.3577 16.4248 20.0638 16.3701 19.7949 16.2607C19.526 16.1514 19.2845 15.985 19.0703 15.7617C18.8607 15.5339 18.6807 15.249 18.5303 14.9072C18.3844 14.5654 18.2728 14.1667 18.1953 13.7109C18.1224 13.2507 18.0859 12.722 18.0859 12.125V10.457C18.0859 9.72786 18.1452 9.0944 18.2637 8.55664C18.3822 8.01888 18.5531 7.57454 18.7764 7.22363C19.0042 6.87272 19.2754 6.61296 19.5898 6.44434C19.9089 6.27572 20.2689 6.19141 20.6699 6.19141C20.9935 6.19141 21.2897 6.24609 21.5586 6.35547C21.8275 6.46484 22.0667 6.63118 22.2764 6.85449C22.486 7.07324 22.6637 7.35124 22.8096 7.68848C22.9554 8.02572 23.0648 8.42676 23.1377 8.8916C23.2152 9.35189 23.2539 9.8737 23.2539 10.457ZM22.4951 12.2275V10.3477C22.4951 9.89648 22.4701 9.48861 22.4199 9.12402C22.3743 8.75488 22.3037 8.43359 22.208 8.16016C22.1123 7.88216 21.9893 7.64974 21.8389 7.46289C21.6885 7.27604 21.5153 7.13704 21.3193 7.0459C21.1279 6.9502 20.9092 6.90234 20.6631 6.90234C20.3623 6.90234 20.098 6.97526 19.8701 7.12109C19.6468 7.26693 19.4577 7.48568 19.3027 7.77734C19.1523 8.06445 19.0384 8.42448 18.9609 8.85742C18.8835 9.28581 18.8447 9.78483 18.8447 10.3545V12.2275C18.8447 12.6742 18.8698 13.082 18.9199 13.4512C18.9701 13.8158 19.043 14.1393 19.1387 14.4219C19.2389 14.6999 19.362 14.9368 19.5078 15.1328C19.6582 15.3242 19.8291 15.4678 20.0205 15.5635C20.2165 15.6592 20.4352 15.707 20.6768 15.707C20.9821 15.707 21.2487 15.6318 21.4766 15.4814C21.7044 15.3265 21.8936 15.1009 22.0439 14.8047C22.1943 14.5085 22.306 14.1462 22.3789 13.7178C22.4564 13.2848 22.4951 12.7881 22.4951 12.2275ZM30.5625 10.457V12.125C30.5625 12.8633 30.5033 13.5036 30.3848 14.0459C30.2708 14.5837 30.1022 15.028 29.8789 15.3789C29.6602 15.7298 29.3913 15.9919 29.0723 16.165C28.7533 16.3382 28.391 16.4248 27.9854 16.4248C27.6663 16.4248 27.3724 16.3701 27.1035 16.2607C26.8346 16.1514 26.5931 15.985 26.3789 15.7617C26.1693 15.5339 25.9893 15.249 25.8389 14.9072C25.693 14.5654 25.5814 14.1667 25.5039 13.7109C25.431 13.2507 25.3945 12.722 25.3945 12.125V10.457C25.3945 9.72786 25.4538 9.0944 25.5723 8.55664C25.6908 8.01888 25.8617 7.57454 26.085 7.22363C26.3128 6.87272 26.584 6.61296 26.8984 6.44434C27.2174 6.27572 27.5775 6.19141 27.9785 6.19141C28.3021 6.19141 28.5983 6.24609 28.8672 6.35547C29.1361 6.46484 29.3753 6.63118 29.585 6.85449C29.7946 7.07324 29.9723 7.35124 30.1182 7.68848C30.264 8.02572 30.3734 8.42676 30.4463 8.8916C30.5238 9.35189 30.5625 9.8737 30.5625 10.457ZM29.8037 12.2275V10.3477C29.8037 9.89648 29.7786 9.48861 29.7285 9.12402C29.6829 8.75488 29.6123 8.43359 29.5166 8.16016C29.4209 7.88216 29.2979 7.64974 29.1475 7.46289C28.9971 7.27604 28.8239 7.13704 28.6279 7.0459C28.4365 6.9502 28.2178 6.90234 27.9717 6.90234C27.6709 6.90234 27.4066 6.97526 27.1787 7.12109C26.9554 7.26693 26.7663 7.48568 26.6113 7.77734C26.4609 8.06445 26.347 8.42448 26.2695 8.85742C26.1921 9.28581 26.1533 9.78483 26.1533 10.3545V12.2275C26.1533 12.6742 26.1784 13.082 26.2285 13.4512C26.2786 13.8158 26.3516 14.1393 26.4473 14.4219C26.5475 14.6999 26.6706 14.9368 26.8164 15.1328C26.9668 15.3242 27.1377 15.4678 27.3291 15.5635C27.5251 15.6592 27.7438 15.707 27.9854 15.707C28.2907 15.707 28.5573 15.6318 28.7852 15.4814C29.013 15.3265 29.2021 15.1009 29.3525 14.8047C29.5029 14.5085 29.6146 14.1462 29.6875 13.7178C29.765 13.2848 29.8037 12.7881 29.8037 12.2275ZM37.8711 10.457V12.125C37.8711 12.8633 37.8118 13.5036 37.6934 14.0459C37.5794 14.5837 37.4108 15.028 37.1875 15.3789C36.9688 15.7298 36.6999 15.9919 36.3809 16.165C36.0618 16.3382 35.6995 16.4248 35.2939 16.4248C34.9749 16.4248 34.681 16.3701 34.4121 16.2607C34.1432 16.1514 33.9017 15.985 33.6875 15.7617C33.4779 15.5339 33.2979 15.249 33.1475 14.9072C33.0016 14.5654 32.89 14.1667 32.8125 13.7109C32.7396 13.2507 32.7031 12.722 32.7031 12.125V10.457C32.7031 9.72786 32.7624 9.0944 32.8809 8.55664C32.9993 8.01888 33.1702 7.57454 33.3936 7.22363C33.6214 6.87272 33.8926 6.61296 34.207 6.44434C34.526 6.27572 34.8861 6.19141 35.2871 6.19141C35.6107 6.19141 35.9069 6.24609 36.1758 6.35547C36.4447 6.46484 36.6839 6.63118 36.8936 6.85449C37.1032 7.07324 37.2809 7.35124 37.4268 7.68848C37.5726 8.02572 37.682 8.42676 37.7549 8.8916C37.8324 9.35189 37.8711 9.8737 37.8711 10.457ZM37.1123 12.2275V10.3477C37.1123 9.89648 37.0872 9.48861 37.0371 9.12402C36.9915 8.75488 36.9209 8.43359 36.8252 8.16016C36.7295 7.88216 36.6064 7.64974 36.4561 7.46289C36.3057 7.27604 36.1325 7.13704 35.9365 7.0459C35.7451 6.9502 35.5264 6.90234 35.2803 6.90234C34.9795 6.90234 34.7152 6.97526 34.4873 7.12109C34.264 7.26693 34.0749 7.48568 33.9199 7.77734C33.7695 8.06445 33.6556 8.42448 33.5781 8.85742C33.5007 9.28581 33.4619 9.78483 33.4619 10.3545V12.2275C33.4619 12.6742 33.487 13.082 33.5371 13.4512C33.5872 13.8158 33.6602 14.1393 33.7559 14.4219C33.8561 14.6999 33.9792 14.9368 34.125 15.1328C34.2754 15.3242 34.4463 15.4678 34.6377 15.5635C34.8337 15.6592 35.0524 15.707 35.2939 15.707C35.5993 15.707 35.8659 15.6318 36.0938 15.4814C36.3216 15.3265 36.5107 15.1009 36.6611 14.8047C36.8115 14.5085 36.9232 14.1462 36.9961 13.7178C37.0736 13.2848 37.1123 12.7881 37.1123 12.2275ZM45.1797 10.457V12.125C45.1797 12.8633 45.1204 13.5036 45.002 14.0459C44.888 14.5837 44.7194 15.028 44.4961 15.3789C44.2773 15.7298 44.0085 15.9919 43.6895 16.165C43.3704 16.3382 43.0081 16.4248 42.6025 16.4248C42.2835 16.4248 41.9896 16.3701 41.7207 16.2607C41.4518 16.1514 41.2103 15.985 40.9961 15.7617C40.7865 15.5339 40.6064 15.249 40.4561 14.9072C40.3102 14.5654 40.1986 14.1667 40.1211 13.7109C40.0482 13.2507 40.0117 12.722 40.0117 12.125V10.457C40.0117 9.72786 40.071 9.0944 40.1895 8.55664C40.3079 8.01888 40.4788 7.57454 40.7021 7.22363C40.93 6.87272 41.2012 6.61296 41.5156 6.44434C41.8346 6.27572 42.1947 6.19141 42.5957 6.19141C42.9193 6.19141 43.2155 6.24609 43.4844 6.35547C43.7533 6.46484 43.9925 6.63118 44.2021 6.85449C44.4118 7.07324 44.5895 7.35124 44.7354 7.68848C44.8812 8.02572 44.9906 8.42676 45.0635 8.8916C45.141 9.35189 45.1797 9.8737 45.1797 10.457ZM44.4209 12.2275V10.3477C44.4209 9.89648 44.3958 9.48861 44.3457 9.12402C44.3001 8.75488 44.2295 8.43359 44.1338 8.16016C44.0381 7.88216 43.915 7.64974 43.7646 7.46289C43.6143 7.27604 43.4411 7.13704 43.2451 7.0459C43.0537 6.9502 42.835 6.90234 42.5889 6.90234C42.2881 6.90234 42.0238 6.97526 41.7959 7.12109C41.5726 7.26693 41.3835 7.48568 41.2285 7.77734C41.0781 8.06445 40.9642 8.42448 40.8867 8.85742C40.8092 9.28581 40.7705 9.78483 40.7705 10.3545V12.2275C40.7705 12.6742 40.7956 13.082 40.8457 13.4512C40.8958 13.8158 40.9688 14.1393 41.0645 14.4219C41.1647 14.6999 41.2878 14.9368 41.4336 15.1328C41.584 15.3242 41.7549 15.4678 41.9463 15.5635C42.1423 15.6592 42.361 15.707 42.6025 15.707C42.9079 15.707 43.1745 15.6318 43.4023 15.4814C43.6302 15.3265 43.8193 15.1009 43.9697 14.8047C44.1201 14.5085 44.2318 14.1462 44.3047 13.7178C44.3822 13.2848 44.4209 12.7881 44.4209 12.2275Z" fill="black"/>
<path d="M57 146.025H326" stroke="#CCCCCC"/>
<path d="M57 110.625H326" stroke="#CCCCCC"/>
<path d="M57 75.2251H326" stroke="#CCCCCC"/>
<path d="M57 39.825H326" stroke="#CCCCCC"/>
<path d="M57 4.42505H326" stroke="#CCCCCC"/>
<path d="M90.625 4.42505V146.025" stroke="#CCCCCC"/>
<path d="M157.875 4.42505V146.025" stroke="#CCCCCC"/>
<path d="M225.125 4.42505V146.025" stroke="#CCCCCC"/>
<path d="M292.375 4.42505V146.025" stroke="#CCCCCC"/>
<path d="M57 4.42505V146.025" stroke="#CCCCCC"/>
<path d="M326 4.42505V146.025" stroke="#CCCCCC"/>
<path d="M72 53H109V146H72V53Z" fill="#D58418"/>
<path d="M138 36H175V146H138V36Z" fill="#D58418"/>
<path d="M206 139H243V146H206V139Z" fill="#D58418"/>
</g>
<defs>
<clipPath id="clip0_355_3461">
<rect width="328" height="177" fill="white"/>
</clipPath>
</defs>
</svg>
