<svg width="32" height="32" viewBox="0 0 32 32" fill="none" xmlns="http://www.w3.org/2000/svg">
<path d="M5.33333 24C4.95556 24 4.63911 23.872 4.384 23.616C4.12889 23.36 4.00089 23.0436 4 22.6667C4 22.2889 4.128 21.9724 4.384 21.7173C4.64 21.4622 4.95644 21.3342 5.33333 21.3333H26.6667C27.0444 21.3333 27.3613 21.4613 27.6173 21.7173C27.8733 21.9733 28.0009 22.2898 28 22.6667C28 23.0444 27.872 23.3613 27.616 23.6173C27.36 23.8733 27.0436 24.0009 26.6667 24H5.33333ZM5.33333 17.3333C4.95556 17.3333 4.63911 17.2053 4.384 16.9493C4.12889 16.6933 4.00089 16.3769 4 16C4 15.6222 4.128 15.3058 4.384 15.0507C4.64 14.7956 4.95644 14.6676 5.33333 14.6667H26.6667C27.0444 14.6667 27.3613 14.7947 27.6173 15.0507C27.8733 15.3067 28.0009 15.6231 28 16C28 16.3778 27.872 16.6947 27.616 16.9507C27.36 17.2067 27.0436 17.3342 26.6667 17.3333H5.33333ZM5.33333 10.6667C4.95556 10.6667 4.63911 10.5387 4.384 10.2827C4.12889 10.0267 4.00089 9.71022 4 9.33333C4 8.95556 4.128 8.63911 4.384 8.384C4.64 8.12889 4.95644 8.00089 5.33333 8H26.6667C27.0444 8 27.3613 8.128 27.6173 8.384C27.8733 8.64 28.0009 8.95644 28 9.33333C28 9.71111 27.872 10.028 27.616 10.284C27.36 10.54 27.0436 10.6676 26.6667 10.6667H5.33333Z" fill="#5D2B2C"/>
</svg>
