<svg width="32" height="32" viewBox="0 0 32 32" fill="none" xmlns="http://www.w3.org/2000/svg">
<path d="M10.8573 12.5714H21.524V11.0476H10.8573V12.5714ZM10.8573 23.2381C10.4383 23.2381 10.0797 23.089 9.7815 22.7909C9.48334 22.4927 9.334 22.1338 9.3335 21.7143V11.0476C9.3335 10.6286 9.48283 10.27 9.7815 9.97181C10.0802 9.67365 10.4388 9.52432 10.8573 9.52381H11.6192V8.7619C11.6192 8.54603 11.6924 8.36521 11.8386 8.21943C11.9849 8.07365 12.1658 8.00051 12.3811 8C12.597 8 12.7781 8.07314 12.9244 8.21943C13.0706 8.36571 13.1435 8.54654 13.143 8.7619V9.52381H19.2383V8.7619C19.2383 8.54603 19.3114 8.36521 19.4577 8.21943C19.604 8.07365 19.7848 8.00051 20.0002 8C20.216 8 20.3971 8.07314 20.5434 8.21943C20.6897 8.36571 20.7626 8.54654 20.7621 8.7619V9.52381H21.524C21.943 9.52381 22.3019 9.67314 22.6005 9.97181C22.8992 10.2705 23.0483 10.6291 23.0478 11.0476V14.6095C23.0478 14.8254 22.9746 15.0065 22.8284 15.1528C22.6821 15.299 22.5012 15.3719 22.2859 15.3714C22.07 15.3714 21.8892 15.2983 21.7434 15.152C21.5976 15.0057 21.5245 14.8251 21.524 14.6103V14.0952H10.8573V21.7143H15.2764C15.4922 21.7143 15.6733 21.7874 15.8196 21.9337C15.9659 22.08 16.0388 22.2608 16.0383 22.4762C16.0383 22.6921 15.9651 22.8731 15.8188 23.0194C15.6725 23.1657 15.4917 23.2386 15.2764 23.2381H10.8573Z" fill="black"/>
<path d="M22.2536 20.5312H16.5136C16.3681 20.5312 16.2462 20.4805 16.1479 20.3792C16.0497 20.2779 16.0003 20.1527 16 20.0036C16 19.8541 16.0493 19.7289 16.1479 19.6279C16.2465 19.527 16.3685 19.4763 16.5136 19.476H22.2536L19.7368 16.8908C19.634 16.7853 19.5847 16.6622 19.5888 16.5215C19.5929 16.3808 19.6465 16.2577 19.7496 16.1522C19.8523 16.0555 19.9722 16.0049 20.1091 16.0003C20.2461 15.9957 20.366 16.0464 20.4687 16.1522L23.8587 19.6343C23.9101 19.687 23.9466 19.7442 23.9681 19.8057C23.9897 19.8673 24.0003 19.9332 24 20.0036C24 20.0739 23.9894 20.1399 23.9681 20.2014C23.9469 20.263 23.9104 20.3201 23.8587 20.3729L20.4687 23.8549C20.3745 23.9516 20.2569 24 20.1158 24C19.9747 24 19.8527 23.9516 19.7496 23.8549C19.6469 23.7494 19.5955 23.6242 19.5955 23.4793C19.5955 23.3344 19.6469 23.209 19.7496 23.1031L22.2536 20.5312Z" fill="black"/>
</svg>
