<svg width="32" height="32" viewBox="0 0 32 32" fill="none" xmlns="http://www.w3.org/2000/svg">
<path d="M10.8573 12.5714H21.524V11.0476H10.8573V12.5714ZM10.8573 23.2381C10.4383 23.2381 10.0797 23.089 9.7815 22.7909C9.48334 22.4927 9.334 22.1338 9.3335 21.7143V11.0476C9.3335 10.6286 9.48283 10.27 9.7815 9.97181C10.0802 9.67365 10.4388 9.52432 10.8573 9.52381H11.6192V8.7619C11.6192 8.54603 11.6924 8.36521 11.8386 8.21943C11.9849 8.07365 12.1658 8.00051 12.3811 8C12.597 8 12.7781 8.07314 12.9244 8.21943C13.0706 8.36571 13.1435 8.54654 13.143 8.7619V9.52381H19.2383V8.7619C19.2383 8.54603 19.3114 8.36521 19.4577 8.21943C19.604 8.07365 19.7848 8.00051 20.0002 8C20.216 8 20.3971 8.07314 20.5434 8.21943C20.6897 8.36571 20.7626 8.54654 20.7621 8.7619V9.52381H21.524C21.943 9.52381 22.3019 9.67314 22.6005 9.97181C22.8992 10.2705 23.0483 10.6291 23.0478 11.0476V14.6095C23.0478 14.8254 22.9746 15.0065 22.8284 15.1528C22.6821 15.299 22.5012 15.3719 22.2859 15.3714C22.07 15.3714 21.8892 15.2983 21.7434 15.152C21.5976 15.0057 21.5245 14.8251 21.524 14.6103V14.0952H10.8573V21.7143H15.2764C15.4922 21.7143 15.6733 21.7874 15.8196 21.9337C15.9659 22.08 16.0388 22.2608 16.0383 22.4762C16.0383 22.6921 15.9651 22.8731 15.8188 23.0194C15.6725 23.1657 15.4917 23.2386 15.2764 23.2381H10.8573Z" fill="black"/>
<path d="M17.7464 19.4688H23.4864C23.6319 19.4688 23.7538 19.5195 23.8521 19.6208C23.9503 19.7221 23.9997 19.8473 24 19.9964C24 20.1459 23.9507 20.2711 23.8521 20.3721C23.7535 20.473 23.6315 20.5237 23.4864 20.524H17.7464L20.2632 23.1092C20.366 23.2147 20.4153 23.3378 20.4112 23.4785C20.4071 23.6192 20.3535 23.7423 20.2504 23.8478C20.1477 23.9445 20.0278 23.9951 19.8909 23.9997C19.7539 24.0043 19.634 23.9536 19.5313 23.8478L16.1413 20.3657C16.0899 20.313 16.0534 20.2558 16.0319 20.1943C16.0103 20.1327 15.9997 20.0668 16 19.9964C16 19.9261 16.0106 19.8601 16.0319 19.7986C16.0531 19.737 16.0896 19.6799 16.1413 19.6271L19.5313 16.1451C19.6255 16.0484 19.7431 16 19.8842 16C20.0253 16 20.1473 16.0484 20.2504 16.1451C20.3531 16.2506 20.4045 16.3758 20.4045 16.5207C20.4045 16.6656 20.3531 16.791 20.2504 16.8969L17.7464 19.4688Z" fill="black"/>
</svg>
