<svg width="32" height="32" viewBox="0 0 32 32" fill="none" xmlns="http://www.w3.org/2000/svg">
<path d="M9.77762 22.5185V23.037C9.77762 23.4691 9.62655 23.8366 9.32443 24.1394C9.02231 24.4422 8.65485 24.5933 8.22206 24.5926C7.78996 24.5926 7.42285 24.4415 7.12073 24.1394C6.8186 23.8373 6.6672 23.4698 6.6665 23.037V15.6222C6.6665 15.5012 6.67515 15.3802 6.69243 15.2593C6.70971 15.1383 6.73564 15.0259 6.77021 14.9222L8.71465 9.4C8.85292 8.98519 9.10354 8.64815 9.4665 8.38889C9.82947 8.12963 10.2356 8 10.685 8H21.3147C21.764 8 22.1702 8.12963 22.5332 8.38889C22.8961 8.64815 23.1468 8.98519 23.285 9.4L25.2295 14.9222C25.264 15.0259 25.29 15.1383 25.3072 15.2593C25.3245 15.3802 25.3332 15.5012 25.3332 15.6222V23.037C25.3332 23.4691 25.1821 23.8366 24.88 24.1394C24.5779 24.4422 24.2104 24.5933 23.7776 24.5926C23.3455 24.5926 22.9784 24.4415 22.6763 24.1394C22.3742 23.8373 22.2228 23.4698 22.2221 23.037V22.5185H9.77762ZM9.57021 13.1852H22.4295L21.3406 10.0741H10.6591L9.57021 13.1852ZM11.3332 19.4074C11.7653 19.4074 12.1327 19.2563 12.4355 18.9542C12.7384 18.6521 12.8894 18.2846 12.8887 17.8519C12.8887 17.4198 12.7377 17.0526 12.4355 16.7505C12.1334 16.4484 11.766 16.297 11.3332 16.2963C10.9011 16.2963 10.534 16.4477 10.2318 16.7505C9.92971 17.0533 9.77831 17.4204 9.77762 17.8519C9.77762 18.284 9.92902 18.6514 10.2318 18.9542C10.5347 19.257 10.9018 19.4081 11.3332 19.4074ZM20.6665 19.4074C21.0986 19.4074 21.4661 19.2563 21.7689 18.9542C22.0717 18.6521 22.2228 18.2846 22.2221 17.8519C22.2221 17.4198 22.071 17.0526 21.7689 16.7505C21.4668 16.4484 21.0993 16.297 20.6665 16.2963C20.2344 16.2963 19.8673 16.4477 19.5652 16.7505C19.263 17.0533 19.1116 17.4204 19.1109 17.8519C19.1109 18.284 19.2624 18.6514 19.5652 18.9542C19.868 19.257 20.2351 19.4081 20.6665 19.4074ZM8.74058 20.4444H23.2591V15.2593H8.74058V20.4444Z" fill="black"/>
</svg>
