<svg width="32" height="32" viewBox="0 0 32 32" fill="none" xmlns="http://www.w3.org/2000/svg">
<path d="M9.7778 22.5185V23.037C9.7778 23.4691 9.62674 23.8366 9.32461 24.1394C9.02249 24.4422 8.65503 24.5933 8.22224 24.5926C7.79014 24.5926 7.42303 24.4415 7.12091 24.1394C6.81879 23.8373 6.66738 23.4698 6.66669 23.037V15.6222C6.66669 15.5012 6.67533 15.3802 6.69261 15.2593C6.7099 15.1383 6.73582 15.0259 6.77039 14.9222L8.71484 9.4C8.85311 8.98519 9.10372 8.64815 9.46669 8.38889C9.82965 8.12963 10.2358 8 10.6852 8H21.3148C21.7642 8 22.1704 8.12963 22.5334 8.38889C22.8963 8.64815 23.1469 8.98519 23.2852 9.4L25.2297 14.9222C25.2642 15.0259 25.2901 15.1383 25.3074 15.2593C25.3247 15.3802 25.3334 15.5012 25.3334 15.6222V23.037C25.3334 23.4691 25.1823 23.8366 24.8802 24.1394C24.578 24.4422 24.2106 24.5933 23.7778 24.5926C23.3457 24.5926 22.9786 24.4415 22.6765 24.1394C22.3743 23.8373 22.2229 23.4698 22.2222 23.037V22.5185H9.7778ZM9.57039 13.1852H22.4297L21.3408 10.0741H10.6593L9.57039 13.1852ZM11.3334 19.4074C11.7655 19.4074 12.1329 19.2563 12.4357 18.9542C12.7385 18.6521 12.8896 18.2846 12.8889 17.8519C12.8889 17.4198 12.7378 17.0526 12.4357 16.7505C12.1336 16.4484 11.7661 16.297 11.3334 16.2963C10.9013 16.2963 10.5341 16.4477 10.232 16.7505C9.9299 17.0533 9.77849 17.4204 9.7778 17.8519C9.7778 18.284 9.92921 18.6514 10.232 18.9542C10.5348 19.257 10.9019 19.4081 11.3334 19.4074ZM20.6667 19.4074C21.0988 19.4074 21.4662 19.2563 21.7691 18.9542C22.0719 18.6521 22.2229 18.2846 22.2222 17.8519C22.2222 17.4198 22.0712 17.0526 21.7691 16.7505C21.4669 16.4484 21.0995 16.297 20.6667 16.2963C20.2346 16.2963 19.8675 16.4477 19.5654 16.7505C19.2632 17.0533 19.1118 17.4204 19.1111 17.8519C19.1111 18.284 19.2625 18.6514 19.5654 18.9542C19.8682 19.257 20.2353 19.4081 20.6667 19.4074ZM8.74076 20.4444H23.2593V15.2593H8.74076V20.4444Z" fill="black"/>
</svg>
