<svg width="20" height="17" viewBox="0 0 20 17" fill="none" xmlns="http://www.w3.org/2000/svg">
<path d="M3.7778 14.5185V15.037C3.7778 15.4691 3.62674 15.8366 3.32461 16.1394C3.02249 16.4422 2.65503 16.5933 2.22224 16.5926C1.79014 16.5926 1.42303 16.4415 1.12091 16.1394C0.818786 15.8373 0.667378 15.4698 0.666687 15.037V7.62222C0.666687 7.50124 0.675329 7.38025 0.692613 7.25926C0.709897 7.13827 0.735823 7.02593 0.770391 6.92222L2.71484 1.4C2.85311 0.985185 3.10372 0.648148 3.46669 0.388889C3.82965 0.12963 4.23582 0 4.68521 0H15.3148C15.7642 0 16.1704 0.12963 16.5334 0.388889C16.8963 0.648148 17.1469 0.985185 17.2852 1.4L19.2297 6.92222C19.2642 7.02593 19.2901 7.13827 19.3074 7.25926C19.3247 7.38025 19.3334 7.50124 19.3334 7.62222V15.037C19.3334 15.4691 19.1823 15.8366 18.8802 16.1394C18.578 16.4422 18.2106 16.5933 17.7778 16.5926C17.3457 16.5926 16.9786 16.4415 16.6765 16.1394C16.3743 15.8373 16.2229 15.4698 16.2222 15.037V14.5185H3.7778ZM3.57039 5.18519H16.4297L15.3408 2.07407H4.65928L3.57039 5.18519ZM5.33335 11.4074C5.76545 11.4074 6.13291 11.2563 6.43572 10.9542C6.73854 10.6521 6.8896 10.2846 6.88891 9.85185C6.88891 9.41975 6.73785 9.05264 6.43572 8.75052C6.1336 8.4484 5.76614 8.29699 5.33335 8.2963C4.90126 8.2963 4.53414 8.4477 4.23202 8.75052C3.9299 9.05333 3.77849 9.42045 3.7778 9.85185C3.7778 10.284 3.92921 10.6514 4.23202 10.9542C4.53484 11.257 4.90195 11.4081 5.33335 11.4074ZM14.6667 11.4074C15.0988 11.4074 15.4662 11.2563 15.7691 10.9542C16.0719 10.6521 16.2229 10.2846 16.2222 9.85185C16.2222 9.41975 16.0712 9.05264 15.7691 8.75052C15.4669 8.4484 15.0995 8.29699 14.6667 8.2963C14.2346 8.2963 13.8675 8.4477 13.5654 8.75052C13.2632 9.05333 13.1118 9.42045 13.1111 9.85185C13.1111 10.284 13.2625 10.6514 13.5654 10.9542C13.8682 11.257 14.2353 11.4081 14.6667 11.4074ZM2.74076 12.4444H17.2593V7.25926H2.74076V12.4444Z" fill="black"/>
</svg>
