<svg width="32" height="32" viewBox="0 0 32 32" fill="none" xmlns="http://www.w3.org/2000/svg">
<path d="M9.77778 22.2222H11.0444L19.7333 13.5333L18.4667 12.2667L9.77778 20.9556V22.2222ZM8.88889 24C8.63704 24 8.42607 23.9147 8.256 23.744C8.08593 23.5733 8.00059 23.3624 8 23.1111V20.9556C8 20.7185 8.04444 20.4924 8.13333 20.2773C8.22222 20.0622 8.34815 19.8735 8.51111 19.7111L19.7333 8.51111C19.9111 8.34815 20.1076 8.22222 20.3227 8.13333C20.5378 8.04444 20.7636 8 21 8C21.237 8 21.4667 8.04444 21.6889 8.13333C21.9111 8.22222 22.1037 8.35556 22.2667 8.53333L23.4889 9.77778C23.6667 9.94074 23.7961 10.1333 23.8773 10.3556C23.9585 10.5778 23.9994 10.8 24 11.0222C24 11.2593 23.9591 11.4853 23.8773 11.7004C23.7956 11.9156 23.6661 12.1117 23.4889 12.2889L12.2889 23.4889C12.1259 23.6519 11.9369 23.7778 11.7218 23.8667C11.5067 23.9556 11.2809 24 11.0444 24H8.88889ZM19.0889 12.9111L18.4667 12.2667L19.7333 13.5333L19.0889 12.9111Z" fill="#5D2B2C"/>
</svg>
