<svg width="24" height="24" viewBox="0 0 24 24" fill="none" xmlns="http://www.w3.org/2000/svg">
<path d="M9.97053 15.7229L12.282 14.3287L14.5935 15.7413L13.9881 13.0996L16.0244 11.3384L13.346 11.0999L12.282 8.60501L11.218 11.0816L8.53961 11.3201L10.5759 13.0996L9.97053 15.7229ZM12.282 16.0531L9.23672 17.8876C9.10219 17.9732 8.96154 18.0099 8.81478 17.9977C8.66802 17.9855 8.53961 17.9366 8.42954 17.8509C8.31947 17.7653 8.23386 17.6584 8.1727 17.5303C8.11155 17.4021 8.09932 17.2583 8.13601 17.0988L8.9432 13.6316L6.24647 11.3017C6.12417 11.1917 6.04785 11.0662 6.01752 10.9253C5.98719 10.7844 5.99624 10.6469 6.04467 10.5129C6.09359 10.3784 6.16697 10.2683 6.26481 10.1827C6.36265 10.0971 6.49718 10.042 6.6684 10.0176L10.2274 9.70571L11.6032 6.44028C11.6644 6.29352 11.7593 6.18345 11.888 6.11007C12.0166 6.03669 12.148 6 12.282 6C12.4165 6 12.5479 6.03669 12.6761 6.11007C12.8042 6.18345 12.8991 6.29352 12.9608 6.44028L14.3367 9.70571L17.8956 10.0176C18.0668 10.042 18.2014 10.0971 18.2992 10.1827C18.3971 10.2683 18.4704 10.3784 18.5194 10.5129C18.5683 10.6474 18.5776 10.7851 18.5472 10.926C18.5169 11.0669 18.4403 11.1922 18.3176 11.3017L15.6208 13.6316L16.428 17.0988C16.4647 17.2578 16.4525 17.4016 16.3913 17.5303C16.3302 17.6589 16.2446 17.7658 16.1345 17.8509C16.0244 17.9366 15.896 17.9855 15.7492 17.9977C15.6025 18.0099 15.4618 17.9732 15.3273 17.8876L12.282 16.0531Z" fill="black"/>
<path d="M9.97053 15.7229L12.282 14.3287L14.5935 15.7413L13.9881 13.0996L16.0244 11.3384L13.346 11.0999L12.282 8.60501L11.218 11.0816L8.53961 11.3201L10.5759 13.0996L9.97053 15.7229Z" fill="black"/>
</svg>
