<svg width="32" height="32" viewBox="0 0 32 32" fill="none" xmlns="http://www.w3.org/2000/svg">
<path d="M15.9998 24.4967C15.7821 24.4967 15.5605 24.4578 15.3353 24.38C15.1101 24.3022 14.9116 24.1778 14.7398 24.0067L13.1298 22.5367C11.4809 21.0278 9.99135 19.5307 8.66104 18.0455C7.33073 16.5602 6.66588 14.9228 6.6665 13.1333C6.6665 11.6711 7.1565 10.45 8.1365 9.47C9.1165 8.49 10.3376 8 11.7998 8C12.6243 8 13.4021 8.17484 14.1332 8.52453C14.8643 8.87422 15.4865 9.35271 15.9998 9.96C16.5132 9.35333 17.1354 8.87516 17.8665 8.52547C18.5976 8.17578 19.3754 8.00062 20.1998 8C21.6621 8 22.8832 8.49 23.8632 9.47C24.8432 10.45 25.3332 11.6711 25.3332 13.1333C25.3332 14.9222 24.6721 16.5633 23.3498 18.0567C22.0276 19.55 20.5265 21.0511 18.8465 22.56L17.2598 24.0067C17.0887 24.1778 16.8905 24.3022 16.6653 24.38C16.4401 24.4578 16.2182 24.4967 15.9998 24.4967ZM15.1132 11.8267C14.6621 11.1889 14.1798 10.7026 13.6665 10.3679C13.1532 10.0331 12.5309 9.86604 11.7998 9.86667C10.8665 9.86667 10.0887 10.1778 9.4665 10.8C8.84428 11.4222 8.53317 12.2 8.53317 13.1333C8.53317 13.9422 8.82095 14.8018 9.3965 15.7121C9.97206 16.6224 10.6605 17.5051 11.462 18.36C12.2628 19.2156 13.0872 20.0167 13.9353 20.7633C14.7834 21.51 15.4716 22.1244 15.9998 22.6067C16.5287 22.1244 17.2172 21.51 18.0653 20.7633C18.9134 20.0167 19.7378 19.2156 20.5386 18.36C21.3394 17.5044 22.0276 16.6218 22.6032 15.7121C23.1787 14.8024 23.4665 13.9428 23.4665 13.1333C23.4665 12.2 23.1554 11.4222 22.5332 10.8C21.9109 10.1778 21.1332 9.86667 20.1998 9.86667C19.4687 9.86667 18.8465 10.034 18.3332 10.3688C17.8198 10.7036 17.3376 11.1895 16.8865 11.8267C16.7776 11.9822 16.6454 12.0989 16.4898 12.1767C16.3343 12.2544 16.1709 12.2933 15.9998 12.2933C15.8287 12.2933 15.6654 12.2544 15.5098 12.1767C15.3543 12.0989 15.2221 11.9822 15.1132 11.8267Z" fill="black"/>
</svg>
