<svg width="20" height="24" viewBox="0 0 20 24" fill="none" xmlns="http://www.w3.org/2000/svg">
<path d="M10 2.07407C8.07475 2.07407 6.22832 2.83889 4.86695 4.20026C3.50557 5.56164 2.74076 7.40806 2.74076 9.33333C2.74076 12.3013 4.58876 15.1646 6.61721 17.3828C7.65495 18.5122 8.78661 19.5516 10 20.4898C11.2134 19.5523 12.3451 18.5137 13.3828 17.3849C15.4113 15.1646 17.2593 12.3024 17.2593 9.33333C17.2593 7.40806 16.4945 5.56164 15.1331 4.20026C13.7717 2.83889 11.9253 2.07407 10 2.07407ZM10 23.0367L9.41202 22.6323L9.40891 22.6302L9.40269 22.625L9.38195 22.6105L9.30417 22.5556C8.87477 22.2434 8.45492 21.9183 8.04521 21.5807C6.99507 20.7181 6.00645 19.7832 5.08654 18.7828C2.96684 16.464 0.666687 13.105 0.666687 9.33333C0.666687 6.85798 1.65002 4.48401 3.40036 2.73367C5.1507 0.98333 7.52467 0 10 0C12.4754 0 14.8493 0.98333 16.5997 2.73367C18.35 4.48401 19.3334 6.85798 19.3334 9.33333C19.3334 13.105 17.0332 16.465 14.9135 18.7828C13.7125 20.0891 12.3948 21.2832 10.9769 22.3502C10.8588 22.4385 10.7395 22.5253 10.6191 22.6105L10.5974 22.625L10.5911 22.6302L10.5891 22.6313L10 23.0367ZM6.88891 6.22222H11.6966C12.1571 6.22222 12.7565 6.38815 13.2574 6.81748C13.7966 7.28104 14.1482 7.99037 14.1482 8.91852C14.1482 9.84667 13.7956 10.556 13.2563 11.0196C12.8219 11.394 12.2701 11.6046 11.6966 11.6148H8.96298V14.5185H6.88891V6.22222ZM8.96298 9.54074H11.6966C11.7731 9.52894 11.8449 9.49629 11.904 9.44637C11.949 9.40718 11.9845 9.35823 12.0077 9.30326C12.0564 9.18102 12.079 9.04998 12.0741 8.91852C12.0792 8.78747 12.0569 8.6568 12.0088 8.53481C11.9824 8.47125 11.9398 8.41574 11.8852 8.37387C11.8306 8.332 11.7659 8.30525 11.6977 8.2963H8.96298V9.54074Z" fill="black"/>
</svg>
