<svg width="32" height="32" viewBox="0 0 32 32" fill="none" xmlns="http://www.w3.org/2000/svg">
<path d="M15.9532 21.6C16.2798 21.6 16.5561 21.487 16.782 21.2612C17.0078 21.0353 17.1205 20.7593 17.1198 20.4333C17.1198 20.1066 17.0072 19.8304 16.782 19.6045C16.5567 19.3786 16.2805 19.266 15.9532 19.2666C15.6265 19.2666 15.3505 19.3796 15.1253 19.6054C14.9001 19.8313 14.7871 20.1072 14.7865 20.4333C14.7865 20.76 14.8994 21.0362 15.1253 21.2621C15.3512 21.488 15.6271 21.6006 15.9532 21.6ZM15.9998 25.3333C14.7087 25.3333 13.4954 25.0881 12.3598 24.5978C11.2243 24.1075 10.2365 23.4427 9.3965 22.6033C8.5565 21.7633 7.89166 20.7755 7.40197 19.64C6.91228 18.5044 6.66713 17.2911 6.6665 16C6.6665 14.7088 6.91166 13.4955 7.40197 12.36C7.89228 11.2244 8.55713 10.2366 9.3965 9.39663C10.2365 8.55663 11.2243 7.89178 12.3598 7.40209C13.4954 6.9124 14.7087 6.66725 15.9998 6.66663C17.2909 6.66663 18.5043 6.91178 19.6398 7.40209C20.7754 7.8924 21.7632 8.55725 22.6032 9.39663C23.4432 10.2366 24.1083 11.2244 24.5986 12.36C25.0889 13.4955 25.3338 14.7088 25.3332 16C25.3332 17.2911 25.088 18.5044 24.5977 19.64C24.1074 20.7755 23.4425 21.7633 22.6032 22.6033C21.7632 23.4433 20.7754 24.1084 19.6398 24.5988C18.5043 25.0891 17.2909 25.3339 15.9998 25.3333ZM15.9998 23.4666C18.0843 23.4666 19.8498 22.7433 21.2965 21.2966C22.7432 19.85 23.4665 18.0844 23.4665 16C23.4665 13.9155 22.7432 12.15 21.2965 10.7033C19.8498 9.25663 18.0843 8.53329 15.9998 8.53329C13.9154 8.53329 12.1498 9.25663 10.7032 10.7033C9.2565 12.15 8.53317 13.9155 8.53317 16C8.53317 18.0844 9.2565 19.85 10.7032 21.2966C12.1498 22.7433 13.9154 23.4666 15.9998 23.4666ZM16.0932 11.9866C16.4821 11.9866 16.8205 12.1111 17.1086 12.36C17.3967 12.6088 17.5405 12.92 17.5398 13.2933C17.5398 13.6355 17.435 13.9388 17.2253 14.2033C17.0156 14.4677 16.7782 14.7166 16.5132 14.95C16.1554 15.2611 15.8405 15.6033 15.5686 15.9766C15.2967 16.35 15.1605 16.77 15.1598 17.2366C15.1598 17.4544 15.2417 17.6373 15.4053 17.7854C15.5689 17.9335 15.7593 18.0072 15.9765 18.0066C16.2098 18.0066 16.4083 17.9288 16.572 17.7733C16.7356 17.6177 16.8405 17.4233 16.8865 17.19C16.9487 16.8633 17.0887 16.5718 17.3065 16.3154C17.5243 16.0591 17.7576 15.8139 18.0065 15.58C18.3643 15.2377 18.6717 14.8644 18.9286 14.46C19.1856 14.0555 19.3138 13.6044 19.3132 13.1066C19.3132 12.3133 18.9905 11.664 18.3453 11.1588C17.7001 10.6535 16.9493 10.4006 16.0932 10.4C15.5021 10.4 14.9383 10.5244 14.402 10.7733C13.8656 11.0222 13.4571 11.4033 13.1765 11.9166C13.0676 12.1033 13.0328 12.3018 13.072 12.5121C13.1112 12.7224 13.216 12.8817 13.3865 12.99C13.6043 13.1144 13.8298 13.1533 14.0632 13.1066C14.2965 13.06 14.4909 12.9277 14.6465 12.71C14.8176 12.4766 15.0317 12.2977 15.2886 12.1733C15.5456 12.0488 15.8138 11.9866 16.0932 11.9866Z" fill="black"/>
</svg>
