<svg width="24" height="28" viewBox="0 0 24 28" fill="none" xmlns="http://www.w3.org/2000/svg">
<path d="M11.9247 25.1384C14.8708 22.4338 17.0562 19.977 18.481 17.7679C19.9057 15.5588 20.6181 13.5965 20.6181 11.881C20.6181 9.24881 19.7792 7.09382 18.1014 5.41599C16.4235 3.73816 14.3646 2.89877 11.9247 2.8978C9.48572 2.8978 7.42731 3.7372 5.74949 5.41599C4.07166 7.09478 3.23226 9.24978 3.2313 11.881C3.2313 13.5955 3.94367 15.5578 5.36842 17.7679C6.79318 19.9779 8.9786 22.4348 11.9247 25.1384ZM11.9247 28C11.5866 28 11.2485 27.9396 10.9105 27.8189C10.5724 27.6981 10.2705 27.517 10.0049 27.2756C8.43526 25.8267 7.04673 24.414 5.83932 23.0375C4.6319 21.6611 3.62395 20.3271 2.81546 19.0357C2.00601 17.7432 1.39023 16.4996 0.968115 15.3047C0.546002 14.1099 0.334462 12.9686 0.333496 11.881C0.333496 8.25873 1.4989 5.37301 3.82969 3.2238C6.16049 1.0746 8.85883 0 11.9247 0C14.9915 0 17.6904 1.0746 20.0212 3.2238C22.352 5.37301 23.5169 8.25873 23.5159 11.881C23.5159 12.9677 23.3048 14.1089 22.8827 15.3047C22.4606 16.5006 21.8448 17.7442 21.0354 19.0357C20.2259 20.3271 19.2175 21.6611 18.0101 23.0375C16.8027 24.414 15.4141 25.8267 13.8445 27.2756C13.5789 27.517 13.277 27.6981 12.9389 27.8189C12.6009 27.9396 12.2628 28 11.9247 28ZM11.9247 14.489C12.7216 14.489 13.404 14.2055 13.972 13.6385C14.54 13.0715 14.8235 12.3891 14.8225 11.5912C14.8225 10.7943 14.539 10.1124 13.972 9.54536C13.405 8.97835 12.7226 8.69437 11.9247 8.6934C11.1278 8.6934 10.4459 8.97739 9.87885 9.54536C9.31185 10.1133 9.02786 10.7953 9.0269 11.5912C9.0269 12.3881 9.31088 13.0705 9.87885 13.6385C10.4468 14.2065 11.1288 14.49 11.9247 14.489Z" fill="black"/>
</svg>
