<svg width="32" height="32" viewBox="0 0 32 32" fill="none" xmlns="http://www.w3.org/2000/svg">
<path d="M8.78772 25.7575C8.20438 25.7575 7.70519 25.55 7.29014 25.135C6.87509 24.7199 6.66721 24.2204 6.6665 23.6363V8.78784C6.6665 8.2045 6.87438 7.70531 7.29014 7.29026C7.7059 6.87521 8.20509 6.66733 8.78772 6.66663H15.1514C15.4519 6.66663 15.7039 6.76844 15.9076 6.97208C16.1112 7.17572 16.2127 7.42743 16.212 7.72723C16.212 8.02774 16.1101 8.27981 15.9065 8.48344C15.7029 8.68708 15.4512 8.78855 15.1514 8.78784H8.78772V23.6363H15.1514C15.4519 23.6363 15.7039 23.7381 15.9076 23.9418C16.1112 24.1454 16.2127 24.3971 16.212 24.6969C16.212 24.9974 16.1101 25.2495 15.9065 25.4531C15.7029 25.6568 15.4512 25.7582 15.1514 25.7575H8.78772ZM21.7006 17.2727H14.0907C13.7902 17.2727 13.5385 17.1709 13.3356 16.9672C13.1327 16.7636 13.0308 16.5119 13.0301 16.2121C13.0301 15.9116 13.132 15.6599 13.3356 15.4569C13.5392 15.254 13.7909 15.1522 14.0907 15.1515H21.7006L19.712 13.1628C19.5175 12.9684 19.4203 12.7298 19.4203 12.4469C19.4203 12.1641 19.5175 11.9166 19.712 11.7045C19.9064 11.4924 20.1539 11.3817 20.4544 11.3725C20.7549 11.3633 21.0112 11.4652 21.2233 11.678L25.015 15.4697C25.2271 15.6818 25.3332 15.9293 25.3332 16.2121C25.3332 16.4949 25.2271 16.7424 25.015 16.9545L21.2233 20.7462C21.0112 20.9583 20.7595 21.0601 20.4682 21.0516C20.1769 21.0431 19.9248 20.9325 19.712 20.7197C19.5175 20.5075 19.4249 20.2558 19.4341 19.9645C19.4433 19.6732 19.5447 19.43 19.7385 19.2348L21.7006 17.2727Z" fill="black"/>
</svg>
