<svg width="32" height="32" viewBox="0 0 24 24" fill="none" xmlns="http://www.w3.org/2000/svg">
<path d="M12 4.55556C10.556 4.55556 9.17123 5.12916 8.1502 6.1502C7.12916 7.17123 6.55556 8.55604 6.55556 10C6.55556 12.226 7.94156 14.3734 9.46289 16.0371C10.2412 16.8842 11.0899 17.6637 12 18.3673C12.91 17.6643 13.7588 16.8852 14.5371 16.0387C16.0584 14.3734 17.4444 12.2268 17.4444 10C17.4444 8.55604 16.8708 7.17123 15.8498 6.1502C14.8288 5.12916 13.444 4.55556 12 4.55556ZM12 20.2776L11.559 19.9742L11.5567 19.9727L11.552 19.9688L11.5364 19.9579L11.4781 19.9167C11.1561 19.6826 10.8412 19.4387 10.5339 19.1856C9.74629 18.5386 9.00482 17.8374 8.31489 17.0871C6.72511 15.348 5 12.8288 5 10C5 8.14348 5.7375 6.36301 7.05025 5.05025C8.36301 3.7375 10.1435 3 12 3C13.8565 3 15.637 3.7375 16.9497 5.05025C18.2625 6.36301 19 8.14348 19 10C19 12.8288 17.2749 15.3488 15.6851 17.0871C14.7843 18.0669 13.7961 18.9624 12.7327 19.7627C12.6441 19.8289 12.5546 19.894 12.4643 19.9579L12.448 19.9688L12.4433 19.9727L12.4418 19.9734L12 20.2776ZM9.66667 7.66667H13.2724C13.6178 7.66667 14.0673 7.79111 14.443 8.11311C14.8474 8.46078 15.1111 8.99278 15.1111 9.68889C15.1111 10.385 14.8467 10.917 14.4422 11.2647C14.1164 11.5455 13.7025 11.7035 13.2724 11.7111H11.2222V13.8889H9.66667V7.66667ZM11.2222 10.1556H13.2724C13.3298 10.1467 13.3836 10.1222 13.428 10.0848C13.4618 10.0554 13.4884 10.0187 13.5058 9.97744C13.5423 9.88577 13.5592 9.78749 13.5556 9.68889C13.5594 9.5906 13.5427 9.4926 13.5066 9.40111C13.4868 9.35344 13.4548 9.3118 13.4139 9.2804C13.3729 9.249 13.3244 9.22894 13.2732 9.22222H11.2222V10.1556Z" fill="black"/>
</svg>
