<svg width="82" height="22" viewBox="0 0 82 22" fill="none" xmlns="http://www.w3.org/2000/svg">
<path d="M30.0508 10.1383C30.0508 4.74051 23.343 0.339966 15.0678 0.339966C6.79348 0.339966 0.0856706 4.74051 0.0856706 10.1383C0.0856706 10.2783 0.0839844 10.6635 0.0839844 10.7124C0.0839844 16.4391 5.947 21.0773 15.0661 21.0773C24.2417 21.0773 30.0508 16.4407 30.0508 10.7133C30.0508 10.5135 30.0508 10.398 30.0508 10.1383Z" fill="#0A0080"/>
<path d="M29.4779 10.1346C29.4779 15.2238 23.0281 19.3496 15.0716 19.3496C7.11516 19.3496 0.665336 15.2238 0.665336 10.1346C0.665336 5.04442 7.11516 0.918699 15.0716 0.918699C23.0281 0.918699 29.4779 5.04442 29.4779 10.1346Z" fill="#00BCFF"/>
<path d="M10.2867 7.22674C10.2791 7.24107 10.1358 7.3903 10.2285 7.50918C10.4562 7.80006 11.1585 7.96615 11.8684 7.8068C12.2908 7.71237 12.8329 7.28154 13.3582 6.8642C13.9264 6.41229 14.4913 5.96038 15.0587 5.77995C15.659 5.58857 16.0443 5.67119 16.299 5.74792C16.578 5.83054 16.906 6.01434 17.4296 6.40723C18.4152 7.14833 22.3786 10.6085 23.0633 11.2062C23.6155 10.9567 26.0664 9.90194 29.3976 9.16759C29.1084 7.39199 28.0275 5.76646 26.3893 4.43603C24.1062 5.39549 21.3155 5.8963 18.5872 4.56334C18.5728 4.55744 17.0957 3.8585 15.6396 3.89306C13.4737 3.94281 12.5361 4.88035 11.5438 5.87185L10.2867 7.22674Z" fill="white"/>
<path d="M22.9028 11.5833C22.8564 11.542 18.242 7.50433 17.1974 6.71939C16.592 6.26579 16.2556 6.14944 15.9024 6.10476C15.7186 6.08031 15.464 6.11488 15.2869 6.16378C14.8004 6.29614 14.1647 6.72107 13.5998 7.16877C13.0156 7.63417 12.4642 8.07259 11.9532 8.18725C11.2998 8.33395 10.5022 8.16027 10.138 7.91492C9.99047 7.81544 9.88676 7.70077 9.83702 7.58442C9.70212 7.27247 9.95 7.02291 9.99131 6.9816L11.2644 5.60395C11.4128 5.4564 11.5612 5.30886 11.7138 5.163C11.3032 5.21696 10.9229 5.32151 10.5537 5.42437C10.0925 5.5542 9.649 5.6773 9.19962 5.6773C9.01245 5.6773 8.0083 5.51289 7.81776 5.46062C6.66522 5.14529 5.65349 4.8384 4.14347 4.13271C2.33331 5.48085 1.12259 7.16539 0.772703 9.02109C1.03322 9.09022 1.45225 9.215 1.62846 9.25379C5.72431 10.1644 6.99994 11.1027 7.2318 11.2992C7.4822 11.0201 7.8439 10.8439 8.24775 10.8439C8.7005 10.8447 9.10941 11.0715 9.35729 11.424C9.59167 11.2385 9.91543 11.0808 10.3336 11.0808C10.5233 11.0808 10.7206 11.1162 10.9196 11.1837C11.3816 11.3422 11.6202 11.6499 11.7441 11.9281C11.8993 11.8582 12.0898 11.8067 12.3141 11.8076C12.535 11.8076 12.7643 11.8573 12.9953 11.9577C13.7508 12.2814 13.8679 13.0233 13.7997 13.5823C13.8536 13.5764 13.9076 13.5739 13.9624 13.5739C14.8578 13.5747 15.5862 14.3024 15.5862 15.1986C15.5862 15.476 15.5154 15.7365 15.3915 15.965C15.6351 16.1024 16.2565 16.4118 16.802 16.3427C17.2379 16.2879 17.4031 16.1387 17.4621 16.0552C17.5026 15.9979 17.5456 15.9304 17.506 15.8823L16.3501 14.5983C16.3501 14.5983 16.1595 14.4179 16.2228 14.3487C16.2877 14.2771 16.4057 14.3799 16.4883 14.4491C17.0768 14.9406 17.7952 15.6817 17.7952 15.6817C17.807 15.6901 17.855 15.7837 18.1206 15.8318C18.3491 15.8722 18.7538 15.8486 19.0337 15.6185C19.1045 15.5603 19.1753 15.4878 19.2344 15.4127C19.2301 15.4161 19.2259 15.422 19.2217 15.4237C19.5168 15.0451 19.1888 14.6624 19.1888 14.6624L17.839 13.1473C17.839 13.1473 17.6468 12.9685 17.7117 12.8969C17.7707 12.8345 17.8947 12.9289 17.9798 12.9989C18.4064 13.3564 19.0101 13.9617 19.5893 14.5283C19.7014 14.6118 20.2107 14.9263 20.8835 14.4836C21.2924 14.2155 21.3742 13.8867 21.3624 13.638C21.3346 13.3092 21.0774 13.0748 21.0774 13.0748L19.2344 11.2216C19.2344 11.2216 19.0396 11.0555 19.1087 10.9712C19.1652 10.9004 19.2917 11.0024 19.3743 11.0715C19.9611 11.5631 21.5512 13.0208 21.5512 13.0208C21.574 13.0368 22.1229 13.428 22.8016 12.9955C23.0444 12.8404 23.1995 12.6069 23.213 12.3345C23.2358 11.8632 22.9028 11.5833 22.9028 11.5833Z" fill="white"/>
<path d="M13.9648 13.9324C13.679 13.929 13.3662 14.0985 13.3257 14.074C13.303 14.0589 13.3426 13.9442 13.3696 13.8776C13.3974 13.8118 13.7734 12.6795 12.8561 12.2858C12.1538 11.9848 11.7247 12.3237 11.5771 12.4772C11.5383 12.5176 11.5215 12.5143 11.5164 12.4628C11.5029 12.2588 11.411 11.7074 10.8057 11.5219C9.93979 11.2572 9.38249 11.8617 9.24085 12.0801C9.17761 11.586 8.76112 11.2032 8.24935 11.2024C7.69373 11.2024 7.24351 11.6518 7.24351 12.2074C7.24267 12.7622 7.69289 13.2124 8.2485 13.2124C8.5183 13.2132 8.7628 13.1053 8.94323 12.9325C8.94913 12.9375 8.95166 12.9468 8.94829 12.9662C8.90613 13.2141 8.82857 14.1179 9.77454 14.4863C10.1539 14.633 10.4769 14.5234 10.7441 14.3362C10.8234 14.2798 10.8369 14.3034 10.8251 14.3784C10.7913 14.6111 10.8343 15.1085 11.5324 15.391C12.0627 15.6068 12.3772 15.3859 12.583 15.1962C12.6723 15.1144 12.6968 15.1271 12.701 15.2536C12.7263 15.9264 13.2853 16.46 13.9631 16.4609C14.6621 16.4609 15.2286 15.896 15.2286 15.1979C15.2295 14.499 14.6638 13.94 13.9648 13.9324Z" fill="white"/>
<path d="M13.962 16.3677C13.3288 16.3668 12.8136 15.8745 12.79 15.2481C12.7892 15.1942 12.7833 15.0509 12.6627 15.0509C12.6121 15.0509 12.5691 15.0812 12.5194 15.1259C12.3803 15.2549 12.2032 15.3864 11.9444 15.3864C11.8263 15.3864 11.699 15.3586 11.565 15.3038C10.8956 15.0332 10.8863 14.5737 10.9133 14.3891C10.9208 14.3394 10.9234 14.2879 10.8896 14.2483L10.8483 14.2121H10.807C10.7733 14.2121 10.7379 14.2256 10.6907 14.2593C10.4968 14.395 10.3113 14.4608 10.1224 14.4608C10.0187 14.4608 9.91248 14.4397 9.80541 14.3984C8.92519 14.0561 8.99517 13.2249 9.03817 12.9754C9.04407 12.9239 9.03143 12.8852 8.99939 12.859L8.937 12.8076L8.87882 12.8632C8.70767 13.0285 8.48256 13.1195 8.24733 13.1195C7.74231 13.1187 7.33171 12.709 7.33255 12.2049C7.33255 11.6999 7.74399 11.291 8.24817 11.291C8.7043 11.291 9.09213 11.6341 9.15031 12.0894L9.1815 12.3347L9.3164 12.1273C9.33158 12.1028 9.70086 11.5439 10.3804 11.5448C10.5094 11.5448 10.6426 11.565 10.7775 11.6072C11.3188 11.7724 11.4107 12.263 11.425 12.4679C11.4343 12.5867 11.5195 12.5926 11.5363 12.5926C11.5827 12.5926 11.6173 12.5631 11.6417 12.537C11.7437 12.4308 11.9663 12.2537 12.3145 12.2537C12.4739 12.2537 12.6442 12.2917 12.8187 12.3667C13.6795 12.736 13.2892 13.8293 13.2849 13.8411C13.2107 14.0224 13.2074 14.1025 13.2773 14.1488L13.3111 14.1649H13.3364C13.3751 14.1649 13.4232 14.148 13.5025 14.121C13.6197 14.0806 13.7967 14.0199 13.962 14.0199H13.9628C14.6103 14.0275 15.1373 14.5543 15.1373 15.195C15.1364 15.8416 14.6095 16.3677 13.962 16.3677ZM23.0811 11.0971C21.6596 9.85705 18.3748 7.00175 17.4853 6.33324C16.9769 5.95136 16.6304 5.74903 16.326 5.65883C16.1895 5.61752 15.9998 5.57031 15.7561 5.57031C15.5301 5.57031 15.2873 5.61078 15.0336 5.69171C14.4586 5.8738 13.8861 6.32903 13.3313 6.76908L13.3026 6.79184C12.7867 7.20239 12.2538 7.62643 11.85 7.71663C11.6737 7.75625 11.4925 7.77649 11.312 7.77649C10.8593 7.77649 10.4538 7.64582 10.3012 7.45192C10.2759 7.41905 10.2919 7.36762 10.3509 7.29259L10.3593 7.28248L11.6097 5.93534C12.5885 4.95575 13.5134 4.03181 15.6431 3.98291C15.6777 3.98207 15.7139 3.98123 15.7494 3.98123C17.0747 3.98207 18.3993 4.57555 18.5477 4.64384C19.7904 5.24997 21.0736 5.55767 22.3627 5.55851C23.7067 5.55935 25.0936 5.22636 26.5513 4.55532C26.3886 4.41875 26.2191 4.28555 26.0446 4.15489C24.7639 4.70959 23.5439 4.99032 22.367 4.99032C21.1638 4.98863 19.9632 4.70032 18.7964 4.13128C18.7348 4.10178 17.272 3.41219 15.7494 3.41135C15.7097 3.41135 15.6693 3.41219 15.6296 3.41303C13.8414 3.45434 12.8339 4.08997 12.156 4.64637C11.4975 4.66238 10.9284 4.82087 10.4234 4.9625C9.9715 5.08726 9.58198 5.19601 9.20174 5.19601C9.04492 5.19601 8.76332 5.18168 8.73802 5.18084C8.30129 5.16735 6.09823 4.62782 4.34624 3.96437C4.1675 4.09082 3.99551 4.22149 3.82773 4.35468C5.65813 5.10497 7.88563 5.68496 8.58879 5.73048C8.78439 5.74397 8.99264 5.76589 9.20089 5.76589C9.66629 5.76589 10.13 5.63607 10.5794 5.51046C10.8441 5.43543 11.1367 5.3545 11.4453 5.29549C11.3626 5.37642 11.2809 5.45819 11.1982 5.53996L9.9285 6.91408C9.82817 7.01524 9.61065 7.28501 9.75397 7.61631C9.81131 7.75035 9.92681 7.87849 10.0887 7.98724C10.3905 8.19125 10.9326 8.32866 11.4368 8.3295C11.6274 8.3295 11.8086 8.31012 11.9747 8.27302C12.5067 8.15331 13.0657 7.7082 13.6576 7.2378C14.1289 6.8635 14.7983 6.38804 15.3118 6.2481C15.4551 6.20932 15.6313 6.18487 15.7721 6.18487C15.8143 6.18571 15.8547 6.18656 15.8918 6.19246C16.2308 6.23461 16.5579 6.3501 17.143 6.78931C18.186 7.57248 22.8003 11.6088 22.8458 11.6493C22.8484 11.6518 23.1426 11.9047 23.1224 12.3271C23.1114 12.5623 22.9807 12.7714 22.7539 12.9164C22.5567 13.0411 22.3535 13.1044 22.1486 13.1044C21.84 13.1044 21.6275 12.9594 21.6132 12.9501C21.5964 12.9357 20.0155 11.4866 19.4338 10.9993C19.341 10.9226 19.2508 10.8535 19.1598 10.8535C19.1117 10.8535 19.0687 10.8737 19.0392 10.9108C18.9481 11.0238 19.0501 11.1797 19.1716 11.2826L21.018 13.1381C21.0205 13.1406 21.2481 13.3539 21.2726 13.6388C21.2878 13.9465 21.1402 14.2036 20.8342 14.4043C20.6167 14.5476 20.3958 14.6209 20.1799 14.6209C19.8966 14.6209 19.6968 14.4911 19.653 14.4608L19.3882 14.1994C18.9043 13.7231 18.4043 13.2308 18.0384 12.9256C17.949 12.8514 17.8538 12.7832 17.7627 12.7832C17.718 12.7832 17.6776 12.7992 17.6464 12.8321C17.6051 12.8784 17.5755 12.9619 17.6801 13.1001C17.7222 13.1566 17.7728 13.2038 17.7728 13.2038L19.121 14.7179C19.1319 14.7314 19.3984 15.0483 19.1513 15.3636L19.1033 15.4235C19.0636 15.4682 19.0198 15.5095 18.9785 15.5449C18.7483 15.7337 18.4414 15.754 18.32 15.754C18.2551 15.754 18.1919 15.748 18.1379 15.7379C18.0047 15.7143 17.9153 15.6772 17.8715 15.6258L17.8555 15.609C17.7821 15.5331 17.1026 14.8393 16.5402 14.3706C16.4668 14.3082 16.3741 14.2298 16.2788 14.2298C16.2316 14.2298 16.1895 14.2483 16.1566 14.2846C16.0453 14.406 16.2122 14.5881 16.283 14.6555L17.4331 15.9226C17.4314 15.9335 17.417 15.9596 17.3892 16.0001C17.3479 16.0566 17.2088 16.1965 16.7914 16.2488C16.7417 16.2555 16.6903 16.2581 16.6388 16.2581C16.2089 16.2581 15.7502 16.049 15.5141 15.9242C15.622 15.6966 15.6777 15.4462 15.6777 15.1959C15.6777 14.2492 14.9096 13.4795 13.9636 13.4795C13.9434 13.4795 13.9223 13.4795 13.9021 13.4803C13.9324 13.0487 13.8717 12.231 13.032 11.871C12.79 11.7665 12.5489 11.7134 12.3154 11.7134C12.1316 11.7134 11.9553 11.7446 11.7901 11.8078C11.6156 11.4697 11.3272 11.2236 10.9504 11.0954C10.7421 11.0238 10.5347 10.9867 10.3349 10.9867C9.98499 10.9867 9.66376 11.0895 9.37626 11.2936C9.10141 10.9521 8.68575 10.749 8.24817 10.749C7.8654 10.749 7.49696 10.9024 7.22463 11.173C6.86631 10.8999 5.44735 9.99783 1.64828 9.13543C1.46448 9.09412 1.04292 8.97273 0.784087 8.8977C0.741088 9.10255 0.708207 9.31078 0.686286 9.52069C0.686286 9.52069 1.38691 9.68845 1.52518 9.71964C5.40604 10.5812 6.68757 11.4773 6.90509 11.6468C6.8309 11.823 6.79296 12.0126 6.79296 12.2049C6.79212 13.0057 7.44469 13.6591 8.24649 13.6599C8.3367 13.6599 8.42607 13.6515 8.51291 13.6354C8.63432 14.2256 9.02047 14.6732 9.6098 14.9025C9.78264 14.9683 9.95717 15.0028 10.1283 15.0028C10.2388 15.0028 10.3509 14.9893 10.4597 14.9615C10.5684 15.238 10.8138 15.5828 11.3618 15.8054C11.554 15.8829 11.7463 15.9234 11.9326 15.9234C12.0852 15.9234 12.2344 15.8964 12.3769 15.8442C12.6391 16.484 13.2647 16.9072 13.9611 16.9072C14.4231 16.908 14.8666 16.72 15.1904 16.3871C15.4669 16.5413 16.0512 16.8195 16.6414 16.8204C16.7181 16.8204 16.7898 16.8145 16.8614 16.806C17.4482 16.7327 17.7206 16.5025 17.8462 16.3247C17.8689 16.2935 17.8892 16.2606 17.9069 16.226C18.0452 16.2665 18.1969 16.2985 18.3714 16.2994C18.6918 16.2994 18.9996 16.1898 19.3098 15.963C19.615 15.7438 19.8317 15.4277 19.8629 15.1588C19.8638 15.1546 19.8646 15.1512 19.8654 15.147C19.9675 15.1681 20.0737 15.179 20.1791 15.179C20.5087 15.179 20.8325 15.0762 21.1428 14.873C21.7405 14.4818 21.8442 13.9701 21.835 13.6346C21.9387 13.6565 22.0457 13.6675 22.152 13.6675C22.4614 13.6675 22.7658 13.5748 23.0549 13.3901C23.4259 13.1532 23.6485 12.7907 23.6822 12.3684C23.7058 12.0818 23.635 11.7926 23.4832 11.5439C24.4849 11.1123 26.7739 10.2777 29.4693 9.6699C29.4533 9.46083 29.423 9.25429 29.3859 9.0486C26.1247 9.77275 23.6906 10.8257 23.0811 11.0971Z" fill="#0A0080"/>
<path d="M79.7647 7.78267C79.5025 8.13088 79.1273 8.30456 78.6366 8.30456C78.1468 8.30456 77.769 8.13088 77.5051 7.78267C77.2404 7.43447 77.1089 6.93872 77.1089 6.29711C77.1089 5.6555 77.2404 5.16143 77.5051 4.81491C77.769 4.46924 78.1468 4.29556 78.6366 4.29556C79.1273 4.29556 79.5025 4.46924 79.7647 4.81491C80.0269 5.16143 80.1593 5.6555 80.1593 6.29711C80.1593 6.93872 80.0269 7.43447 79.7647 7.78267ZM81.1052 3.89508C80.564 3.21806 79.7436 2.87912 78.6417 2.87912C77.5414 2.87912 76.7202 3.21806 76.1798 3.89508C75.6385 4.57294 75.3679 5.37305 75.3679 6.29711C75.3679 7.23718 75.6385 8.04067 76.1798 8.70926C76.7202 9.37532 77.5414 9.71003 78.6417 9.71003C79.7436 9.71003 80.564 9.37532 81.1052 8.70926C81.6465 8.04067 81.9163 7.23718 81.9163 6.29711C81.9163 5.37305 81.6465 4.57294 81.1052 3.89508Z" fill="#0A0080"/>
<path d="M66.4319 6.99014C66.4209 7.5525 66.2599 7.94033 65.9505 8.15195C65.6411 8.36441 65.303 8.47149 64.9362 8.47149C64.7044 8.47149 64.5079 8.40657 64.346 8.27926C64.1842 8.15111 64.1041 7.9437 64.1041 7.6562C64.1041 7.33497 64.2356 7.09721 64.5003 6.94292C64.658 6.85355 64.9143 6.77599 65.2735 6.71444L65.6562 6.64362C65.8468 6.60737 65.9969 6.56858 66.1065 6.52727C66.2178 6.4868 66.3248 6.43284 66.4319 6.36539V6.99014ZM67.2843 3.32765C66.7354 3.05027 66.1081 2.90947 65.4016 2.90947C64.3157 2.90947 63.5493 3.19275 63.1033 3.75848C62.8225 4.12102 62.6657 4.58221 62.6286 5.14456H64.2508C64.2912 4.89669 64.3705 4.70024 64.4902 4.55523C64.658 4.35878 64.9421 4.26014 65.3443 4.26014C65.7035 4.26014 65.9758 4.30904 66.1613 4.41105C66.3459 4.51054 66.4387 4.69265 66.4387 4.95571C66.4387 5.17239 66.3189 5.33089 66.0761 5.43375C65.9412 5.49277 65.7178 5.54167 65.4042 5.5813L64.8291 5.65212C64.1766 5.7339 63.68 5.87217 63.3444 6.06524C62.7298 6.41935 62.4237 6.99014 62.4237 7.78098C62.4237 8.38971 62.6134 8.86101 62.9954 9.1932C63.3765 9.52538 63.8613 9.6645 64.4464 9.69232C68.1148 9.85588 68.0734 7.75906 68.1072 7.32233V4.90849C68.1072 4.13451 67.8323 3.60757 67.2843 3.32765Z" fill="#0A0080"/>
<path d="M58.9165 4.34797C59.3364 4.34797 59.6441 4.47781 59.8431 4.73664C59.9797 4.92803 60.0648 5.14471 60.0977 5.38415H61.9079C61.8084 4.47106 61.4889 3.83367 60.9493 3.47197C60.408 3.1128 59.7158 2.93153 58.8685 2.93153C57.871 2.93153 57.0886 3.23759 56.5229 3.84884C55.9563 4.46094 55.6731 5.31586 55.6731 6.41528C55.6731 7.38823 55.9294 8.1816 56.442 8.79371C56.9546 9.40412 57.7547 9.71017 58.8423 9.71017C59.9308 9.71017 60.752 9.34426 61.3059 8.61075C61.6524 8.15631 61.8472 7.67405 61.8885 7.16481H60.0851C60.048 7.50121 59.9426 7.77607 59.7681 7.98769C59.5944 8.19847 59.301 8.3047 58.8862 8.3047C58.3027 8.3047 57.9048 8.03912 57.6931 7.50458C57.5776 7.22046 57.5195 6.84358 57.5195 6.37397C57.5195 5.88159 57.5776 5.48701 57.6931 5.18939C57.9132 4.62957 58.3213 4.34797 58.9165 4.34797Z" fill="#0A0080"/>
<path d="M55.1891 2.93153C51.4718 2.93153 51.6919 6.22305 51.6919 6.22305V9.566H53.3781V6.43046C53.3781 5.917 53.443 5.53591 53.572 5.28888C53.803 4.85046 54.2558 4.63041 54.9303 4.63041C54.9809 4.63041 55.0475 4.63294 55.1301 4.63715C55.2119 4.64053 55.3055 4.64811 55.4125 4.66076V2.94418C55.3375 2.93912 55.2894 2.93744 55.2684 2.93491C55.2464 2.93322 55.2203 2.93153 55.1891 2.93153Z" fill="#0A0080"/>
<path d="M46.725 4.67847C46.9627 4.43481 47.2957 4.31256 47.7249 4.31256C48.1212 4.31256 48.4517 4.42722 48.7189 4.65823C48.9853 4.88756 49.1346 5.22565 49.1649 5.66997H46.2789C46.3388 5.25263 46.488 4.92297 46.725 4.67847ZM48.9921 7.81907C48.9213 7.92024 48.8454 8.00708 48.7611 8.07453C48.5233 8.27097 48.1996 8.32999 47.8185 8.32999C47.4576 8.32999 47.176 8.27519 46.9206 8.11416C46.4998 7.85616 46.2629 7.41859 46.2376 6.77529H50.9051C50.9119 6.22221 50.8933 5.79896 50.8486 5.50388C50.7711 5.00222 50.6007 4.55959 50.3385 4.17934C50.0477 3.74767 49.6775 3.4315 49.2307 3.23084C48.7847 3.03102 48.283 2.93153 47.7249 2.93153C46.7848 2.93153 46.0218 3.22747 45.4333 3.81933C44.8448 4.41204 44.5497 5.26274 44.5497 6.37228C44.5497 7.5577 44.876 8.41262 45.5286 8.93788C46.1803 9.46314 46.9332 9.72703 47.7856 9.72703C48.8184 9.72703 49.6219 9.41508 50.1961 8.79202C50.5055 8.46405 50.6994 8.13945 50.7812 7.81907H48.9921Z" fill="#0A0080"/>
<path d="M43.8748 9.56447H42.3336V5.68446C42.3336 5.33035 42.2172 4.48724 41.2004 4.48724C40.5226 4.48724 40.0327 4.97625 40.0327 5.68446V9.56447H38.4907V5.68446C38.4907 5.33035 38.3853 4.48724 37.3693 4.48724C36.6797 4.48724 36.2008 4.97625 36.2008 5.68446V9.56447H34.6596V5.72156C34.6596 4.11964 35.7219 2.90809 37.3693 2.90809C38.1871 2.90809 38.8524 3.25208 39.2849 3.80263C39.7402 3.25208 40.4172 2.90809 41.2004 2.90809C42.8825 2.90809 43.8748 4.07074 43.8748 5.72156V9.56447Z" fill="#0A0080"/>
<path d="M72.8425 7.79455C72.5963 8.14782 72.2346 8.32403 71.7607 8.32403C71.2861 8.32403 70.9328 8.14613 70.7001 7.79203C70.4674 7.43623 70.3511 6.92025 70.3511 6.32838C70.3511 5.77951 70.4649 5.32002 70.6942 4.94989C70.9227 4.57976 71.2819 4.39428 71.7726 4.39428C72.0938 4.39428 72.3762 4.49545 72.6199 4.69948C73.0153 5.03673 73.2134 5.64124 73.2134 6.42534C73.2134 6.98517 73.0895 7.44213 72.8425 7.79455ZM74.8659 0.903786C74.8659 0.903786 73.1662 0.722517 73.1662 2.08752L73.1654 3.89431C72.9774 3.59248 72.7329 3.35556 72.431 3.1861C72.13 3.01579 71.7852 2.92979 71.3957 2.92979C70.5534 2.92979 69.8814 3.24343 69.3773 3.8707C68.8731 4.49798 68.6227 5.4018 68.6227 6.49532C68.6227 7.44382 68.8781 8.22117 69.3891 8.82737C69.9008 9.43188 70.9041 9.69746 71.7945 9.69746C74.9005 9.69746 74.8643 7.03322 74.8643 7.03322L74.8659 0.903786Z" fill="#0A0080"/>
<path d="M39.1727 15.706C39.1727 15.0703 39.0488 14.5813 38.8001 14.2381C38.5522 13.8967 38.1972 13.7238 37.7335 13.7238C37.2884 13.7238 36.9402 13.8967 36.6914 14.2381C36.4613 14.5484 36.3458 15.0391 36.3458 15.706C36.3458 16.3282 36.4689 16.7911 36.7176 17.1013C36.9646 17.4445 37.3212 17.6156 37.7833 17.6156C38.2133 17.6156 38.5522 17.4445 38.8001 17.1013C39.0488 16.759 39.1727 16.2953 39.1727 15.706ZM36.3458 20.2706C36.3458 20.4982 36.2631 20.6947 36.0962 20.8574C35.9318 21.021 35.7337 21.1028 35.5018 21.1028H34.6595V15.2406C34.6595 14.1007 35.0432 13.3874 35.6755 12.9043C36.0937 12.5856 36.7159 12.2813 37.8828 12.2813C38.6702 12.2813 39.5926 12.5873 40.0909 13.1944C40.6499 13.8773 40.8826 14.6386 40.8826 15.6326C40.8826 16.6612 40.6347 17.4909 40.1398 18.1291C39.644 18.7496 39.0066 19.0582 38.2293 19.0582C37.8162 19.0582 37.4528 18.9849 37.1391 18.839C36.8069 18.6754 36.5439 18.4225 36.3458 18.0794V20.2706Z" fill="#0A0080"/>
<path d="M49.2835 15.7074C49.2835 16.8322 49.6089 17.4552 50.2581 17.5783C50.9065 17.6989 51.3862 17.548 51.6948 17.1247C51.8415 16.9468 51.9461 16.6644 52.0118 16.2825C52.0759 15.8997 52.081 15.5203 52.0236 15.1459C51.968 14.7699 51.8331 14.436 51.6215 14.1426C51.4115 13.8501 51.1021 13.7025 50.6966 13.7025C50.1443 13.7025 49.7717 13.9074 49.5761 14.3129C49.3805 14.721 49.2835 15.1856 49.2835 15.7074ZM52.0607 18.5184V18.1044C51.769 18.5614 51.3736 18.8447 50.8787 18.9593C50.3838 19.0732 49.8922 19.0327 49.4066 18.8362C48.9184 18.6415 48.5003 18.2789 48.1512 17.7495C47.8022 17.2183 47.6285 16.5219 47.6285 15.6577C47.6285 14.6485 47.8595 13.829 48.3215 13.2017C48.7844 12.5744 49.528 12.2878 50.5507 12.26C51.5582 12.233 52.1442 12.4615 52.7184 12.8957C53.3456 13.372 53.7166 14.1022 53.7166 15.2429V18.6912C53.7191 19.7881 52.9536 21.8217 50.5507 21.6497C49.0618 21.5418 48.2355 20.9305 47.7743 19.547H49.5525C49.6823 19.7746 49.8804 19.9492 50.1494 20.0706C50.4158 20.1945 50.6856 20.2265 50.9512 20.1692C51.2193 20.1119 51.463 19.9525 51.6839 19.6928C51.9022 19.4323 52.0278 19.0403 52.0607 18.5184Z" fill="#0A0080"/>
<path d="M45.3301 16.3881C45.3191 16.9505 45.1581 17.3375 44.8495 17.5499C44.5401 17.7616 44.202 17.8678 43.8353 17.8678C43.6026 17.8678 43.4061 17.8037 43.2451 17.6764C43.0832 17.5491 43.0023 17.3409 43.0023 17.0534C43.0023 16.7321 43.1346 16.4944 43.3994 16.3409C43.557 16.2507 43.8133 16.1731 44.1717 16.1116L44.5544 16.0408C44.7458 16.0045 44.8959 15.9657 45.0047 15.9244C45.116 15.884 45.223 15.8308 45.3301 15.7634V16.3881ZM46.1825 12.7256C45.6336 12.4483 45.0064 12.3075 44.3007 12.3075C43.2139 12.3075 42.4483 12.5907 42.0015 13.1565C41.7216 13.5182 41.5639 13.9794 41.5277 14.5426H43.1507C43.1903 14.2938 43.2695 14.0974 43.3893 13.9524C43.557 13.7559 43.8412 13.6581 44.2425 13.6581C44.6033 13.6581 44.8748 13.707 45.0595 13.8082C45.2441 13.9085 45.3377 14.0906 45.3377 14.3537C45.3377 14.5695 45.2171 14.7289 44.9752 14.8317C44.8411 14.8908 44.6168 14.9397 44.3032 14.9793L43.7282 15.0493C43.0756 15.1319 42.579 15.2702 42.2435 15.4624C41.6288 15.8165 41.3219 16.3881 41.3219 17.1781C41.3219 17.7869 41.5125 18.2582 41.8944 18.5903C42.2755 18.9217 42.7603 19.0625 43.3454 19.0895C47.0121 19.253 46.9716 17.1554 47.0054 16.7195V14.3056C47.0054 13.5317 46.7314 13.0056 46.1825 12.7256Z" fill="#0A0080"/>
<path d="M58.7548 17.1431C58.4926 17.4922 58.1165 17.6659 57.6267 17.6659C57.136 17.6659 56.7583 17.4922 56.4952 17.1431C56.2296 16.7958 56.0981 16.3009 56.0981 15.6592C56.0981 15.0176 56.2296 14.5236 56.4952 14.1771C56.7583 13.8305 57.136 13.6585 57.6267 13.6585C58.1165 13.6585 58.4926 13.8305 58.7548 14.1771C59.017 14.5236 59.1485 15.0176 59.1485 15.6592C59.1485 16.3009 59.017 16.7958 58.7548 17.1431ZM60.0953 13.2572C59.5541 12.5793 58.7329 12.2413 57.6309 12.2413C56.5315 12.2413 55.7095 12.5793 55.169 13.2572C54.6277 13.9342 54.3571 14.7343 54.3571 15.6592C54.3571 16.5993 54.6277 17.402 55.169 18.0706C55.7095 18.7366 56.5315 19.0713 57.6309 19.0713C58.7329 19.0713 59.5541 18.7366 60.0953 18.0706C60.6358 17.402 60.9047 16.5993 60.9047 15.6592C60.9047 14.7343 60.6358 13.9342 60.0953 13.2572Z" fill="#0A0080"/>
</svg>
