<svg width="32" height="32" viewBox="0 0 32 32" fill="none" xmlns="http://www.w3.org/2000/svg">
<path d="M8.53317 12.2666H21.5998V10.4H8.53317V12.2666ZM8.53317 25.3333C8.01984 25.3333 7.58055 25.1507 7.2153 24.7854C6.85006 24.4202 6.66713 23.9806 6.6665 23.4666V10.4C6.6665 9.88663 6.84944 9.44734 7.2153 9.08209C7.58117 8.71685 8.02046 8.53391 8.53317 8.53329H9.4665V7.59996C9.4665 7.33551 9.5561 7.114 9.7353 6.93543C9.9145 6.75685 10.136 6.66725 10.3998 6.66663C10.6643 6.66663 10.8861 6.75623 11.0653 6.93543C11.2445 7.11463 11.3338 7.33614 11.3332 7.59996V8.53329H18.7998V7.59996C18.7998 7.33551 18.8894 7.114 19.0686 6.93543C19.2478 6.75685 19.4693 6.66725 19.7332 6.66663C19.9976 6.66663 20.2194 6.75623 20.3986 6.93543C20.5778 7.11463 20.6671 7.33614 20.6665 7.59996V8.53329H21.5998C22.1132 8.53329 22.5528 8.71623 22.9186 9.08209C23.2845 9.44796 23.4671 9.88725 23.4665 10.4V14.7633C23.4665 15.0277 23.3769 15.2496 23.1977 15.4288C23.0185 15.608 22.797 15.6972 22.5332 15.6966C22.2687 15.6966 22.0472 15.607 21.8686 15.4278C21.6901 15.2486 21.6005 15.0274 21.5998 14.7642V14.1333H8.53317V23.4666H13.9465C14.2109 23.4666 14.4328 23.5562 14.612 23.7354C14.7912 23.9146 14.8805 24.1361 14.8798 24.4C14.8798 24.6644 14.7902 24.8862 14.611 25.0654C14.4318 25.2446 14.2103 25.3339 13.9465 25.3333H8.53317ZM20.6665 26.2666C19.3754 26.2666 18.275 25.8115 17.3653 24.9012C16.4556 23.9908 16.0005 22.8904 15.9998 21.6C15.9998 20.3088 16.455 19.2084 17.3653 18.2988C18.2756 17.3891 19.376 16.9339 20.6665 16.9333C21.9576 16.9333 23.0583 17.3884 23.9686 18.2988C24.879 19.2091 25.3338 20.3095 25.3332 21.6C25.3332 22.8911 24.878 23.9918 23.9677 24.9021C23.0574 25.8124 21.957 26.2672 20.6665 26.2666ZM21.1332 21.4133V19.2666C21.1332 19.1422 21.0865 19.0333 20.9932 18.94C20.8998 18.8466 20.7909 18.8 20.6665 18.8C20.5421 18.8 20.4332 18.8466 20.3398 18.94C20.2465 19.0333 20.1998 19.1422 20.1998 19.2666V21.39C20.1998 21.5144 20.2232 21.6351 20.2698 21.7521C20.3165 21.8691 20.3865 21.9739 20.4798 22.0666L21.9032 23.49C21.9965 23.5833 22.1054 23.63 22.2298 23.63C22.3543 23.63 22.4632 23.5833 22.5565 23.49C22.6498 23.3966 22.6965 23.2877 22.6965 23.1633C22.6965 23.0388 22.6498 22.93 22.5565 22.8366L21.1332 21.4133Z" fill="black"/> 
</svg> 

