<svg width="32" height="32" viewBox="0 0 32 32" fill="none" xmlns="http://www.w3.org/2000/svg">
<path fill-rule="evenodd" clip-rule="evenodd" d="M18.699 5.33337C19.1467 5.33349 19.5831 5.47448 19.9463 5.73637C20.3094 5.99826 20.581 6.36777 20.7225 6.79257L21.3017 8.53337H24.8003C25.0832 8.53337 25.3545 8.64575 25.5546 8.84579C25.7546 9.04583 25.867 9.31714 25.867 9.60004C25.867 9.88294 25.7546 10.1542 25.5546 10.3543C25.3545 10.5543 25.0832 10.6667 24.8003 10.6667H23.7337V23.4667C23.7337 24.3154 23.3965 25.1293 22.7964 25.7294C22.1963 26.3296 21.3824 26.6667 20.5337 26.6667H12.0003C11.1516 26.6667 10.3377 26.3296 9.73758 25.7294C9.13747 25.1293 8.80033 24.3154 8.80033 23.4667V10.6667H7.73366C7.45076 10.6667 7.17945 10.5543 6.97941 10.3543C6.77937 10.1542 6.66699 9.88294 6.66699 9.60004C6.66699 9.31714 6.77937 9.04583 6.97941 8.84579C7.17945 8.64575 7.45076 8.53337 7.73366 8.53337H11.2323L11.8115 6.79257C11.9531 6.3676 12.2248 5.99796 12.5882 5.73606C12.9515 5.47415 13.3881 5.33327 13.8361 5.33337H18.699ZM21.6003 10.6667H10.9337V23.4667C10.9337 23.7496 11.046 24.0209 11.2461 24.221C11.4461 24.421 11.7174 24.5334 12.0003 24.5334H20.5337C20.8166 24.5334 21.0879 24.421 21.2879 24.221C21.4879 24.0209 21.6003 23.7496 21.6003 23.4667V10.6667ZM18.699 7.46671H13.835L13.4798 8.53337H19.0542L18.699 7.46671Z" fill="#5D2B2C"/>
</svg>
