<svg width="24" height="24" viewBox="0 0 24 24" fill="none" xmlns="http://www.w3.org/2000/svg">
<g clip-path="url(#clip0_130_1226)">
<path fill-rule="evenodd" clip-rule="evenodd" d="M14.024 4C14.3598 4.00009 14.6871 4.10583 14.9594 4.30225C15.2318 4.49866 15.4355 4.7758 15.5416 5.0944L15.976 6.4H18.6C18.8122 6.4 19.0157 6.48429 19.1657 6.63431C19.3157 6.78434 19.4 6.98783 19.4 7.2C19.4 7.41217 19.3157 7.61566 19.1657 7.76569C19.0157 7.91571 18.8122 8 18.6 8H17.8V17.6C17.8 18.2365 17.5471 18.847 17.0971 19.2971C16.647 19.7471 16.0365 20 15.4 20H9C8.36348 20 7.75303 19.7471 7.30294 19.2971C6.85286 18.847 6.6 18.2365 6.6 17.6V8H5.8C5.58783 8 5.38434 7.91571 5.23431 7.76569C5.08429 7.61566 5 7.41217 5 7.2C5 6.98783 5.08429 6.78434 5.23431 6.63431C5.38434 6.48429 5.58783 6.4 5.8 6.4H8.424L8.8584 5.0944C8.96456 4.77567 9.16835 4.49844 9.44088 4.30201C9.71341 4.10558 10.0409 3.99992 10.3768 4H14.024ZM16.2 8H8.2V17.6C8.2 17.8122 8.28429 18.0157 8.43431 18.1657C8.58434 18.3157 8.78783 18.4 9 18.4H15.4C15.6122 18.4 15.8157 18.3157 15.9657 18.1657C16.1157 18.0157 16.2 17.8122 16.2 17.6V8ZM14.024 5.6H10.376L10.1096 6.4H14.2904L14.024 5.6Z" fill="#5D2B2C"/>
</g>
<defs>
<clipPath id="clip0_130_1226">
<rect width="24" height="24" fill="white"/>
</clipPath>
</defs>
</svg>
