<svg width="32" height="32" viewBox="0 0 32 32" fill="none" xmlns="http://www.w3.org/2000/svg">
<path d="M15.9998 6.66663C14.1539 6.66663 12.3494 7.21402 10.8145 8.23958C9.27966 9.26514 8.08338 10.7228 7.37697 12.4282C6.67055 14.1337 6.48572 16.0103 6.84585 17.8208C7.20597 19.6313 8.09489 21.2943 9.40018 22.5996C10.7055 23.9049 12.3685 24.7938 14.179 25.154C15.9895 25.5141 17.8661 25.3292 19.5716 24.6228C21.277 23.9164 22.7347 22.7201 23.7602 21.1853C24.7858 19.6504 25.3332 17.8459 25.3332 16C25.3306 13.5254 24.3464 11.153 22.5966 9.40318C20.8468 7.65341 18.4744 6.66924 15.9998 6.66663ZM11.1609 22.2371C11.6802 21.4249 12.3957 20.7564 13.2414 20.2933C14.0871 19.8303 15.0357 19.5876 15.9998 19.5876C16.964 19.5876 17.9126 19.8303 18.7583 20.2933C19.6039 20.7564 20.3194 21.4249 20.8388 22.2371C19.4553 23.3132 17.7526 23.8973 15.9998 23.8973C14.2471 23.8973 12.5444 23.3132 11.1609 22.2371ZM13.128 15.282C13.128 14.714 13.2965 14.1588 13.612 13.6865C13.9276 13.2143 14.3761 12.8462 14.9009 12.6288C15.4256 12.4115 16.003 12.3546 16.5601 12.4654C17.1172 12.5762 17.6289 12.8497 18.0305 13.2513C18.4321 13.653 18.7056 14.1647 18.8165 14.7218C18.9273 15.2788 18.8704 15.8562 18.653 16.381C18.4357 16.9057 18.0676 17.3543 17.5953 17.6698C17.1231 17.9854 16.5678 18.1538 15.9998 18.1538C15.2382 18.1538 14.5077 17.8512 13.9692 17.3127C13.4306 16.7741 13.128 16.0437 13.128 15.282ZM21.9014 21.2419C21.1007 20.0816 19.9747 19.1839 18.6652 18.6618C19.3686 18.1077 19.8819 17.3482 20.1337 16.489C20.3855 15.6297 20.3633 14.7133 20.0701 13.8672C19.7769 13.0212 19.2274 12.2875 18.4979 11.7683C17.7684 11.249 16.8953 10.97 15.9998 10.97C15.1044 10.97 14.2313 11.249 13.5018 11.7683C12.7723 12.2875 12.2228 13.0212 11.9296 13.8672C11.6364 14.7133 11.6142 15.6297 11.866 16.489C12.1177 17.3482 12.631 18.1077 13.3345 18.6618C12.0249 19.1839 10.899 20.0816 10.0983 21.2419C9.0865 20.1041 8.42519 18.698 8.19398 17.1931C7.96278 15.6882 8.17155 14.1485 8.79515 12.7594C9.41875 11.3704 10.4306 10.1912 11.7088 9.3639C12.9871 8.53661 14.4772 8.09646 15.9998 8.09646C17.5224 8.09646 19.0126 8.53661 20.2908 9.3639C21.5691 10.1912 22.5809 11.3704 23.2045 12.7594C23.8281 14.1485 24.0369 15.6882 23.8057 17.1931C23.5745 18.698 22.9132 20.1041 21.9014 21.2419Z" fill="black"/>
</svg>
