<svg width="17" height="16" viewBox="0 0 17 16" fill="none" xmlns="http://www.w3.org/2000/svg">
<path d="M5.29404 12.9639L8.37602 11.1049L11.458 12.9883L10.6508 9.46608L13.3659 7.11791L9.7947 6.79992L8.37602 3.47334L6.95733 6.77546L3.38614 7.09345L6.10122 9.46608L5.29404 12.9639ZM8.37602 13.4042L4.31563 15.8502C4.13625 15.9643 3.94873 16.0132 3.75305 15.9969C3.55736 15.9806 3.38614 15.9154 3.23938 15.8013C3.09262 15.6871 2.97847 15.5446 2.89694 15.3737C2.81541 15.2028 2.7991 15.011 2.84802 14.7984L3.92427 10.1754L0.328623 7.06899C0.165555 6.92222 0.063801 6.75492 0.0233602 6.56706C-0.0170806 6.37921 -0.00501361 6.19592 0.0595612 6.0172C0.124788 5.83782 0.222629 5.69106 0.353083 5.57692C0.483537 5.46277 0.662912 5.38939 0.891207 5.35677L5.63648 4.94095L7.47099 0.587044C7.55252 0.391363 7.67906 0.244602 7.85061 0.146761C8.02216 0.0489204 8.19729 0 8.37602 0C8.55539 0 8.73052 0.0489204 8.90142 0.146761C9.07231 0.244602 9.19886 0.391363 9.28104 0.587044L11.1156 4.94095L15.8608 5.35677C16.0891 5.38939 16.2685 5.46277 16.3989 5.57692C16.5294 5.69106 16.6272 5.83782 16.6925 6.0172C16.7577 6.19657 16.7701 6.38019 16.7296 6.56804C16.6892 6.7559 16.5871 6.92288 16.4234 7.06899L12.8278 10.1754L13.904 14.7984C13.9529 15.0104 13.9366 15.2022 13.8551 15.3737C13.7736 15.5452 13.6594 15.6878 13.5126 15.8013C13.3659 15.9154 13.1947 15.9806 12.999 15.9969C12.8033 16.0132 12.6158 15.9643 12.4364 15.8502L8.37602 13.4042Z" fill="#5D2B2C"/>
</svg>
