<svg width="40" height="40" viewBox="0 0 40 40" fill="none" xmlns="http://www.w3.org/2000/svg">
<path d="M12.2219 28.1481V28.7963C12.2219 29.3364 12.0331 29.7957 11.6554 30.1743C11.2778 30.5528 10.8184 30.7416 10.2775 30.7407C9.73733 30.7407 9.27844 30.5519 8.90079 30.1743C8.52313 29.7966 8.33387 29.3373 8.33301 28.7963V19.5278C8.33301 19.3765 8.34381 19.2253 8.36542 19.0741C8.38702 18.9228 8.41943 18.7824 8.46264 18.6528L10.8932 11.75C11.066 11.2315 11.3793 10.8102 11.833 10.4861C12.2867 10.162 12.7944 10 13.3562 10H26.6432C27.2049 10 27.7126 10.162 28.1663 10.4861C28.62 10.8102 28.9333 11.2315 29.1062 11.75L31.5367 18.6528C31.5799 18.7824 31.6123 18.9228 31.6339 19.0741C31.6555 19.2253 31.6663 19.3765 31.6663 19.5278V28.7963C31.6663 29.3364 31.4775 29.7957 31.0999 30.1743C30.7222 30.5528 30.2629 30.7416 29.7219 30.7407C29.1818 30.7407 28.7229 30.5519 28.3452 30.1743C27.9676 29.7966 27.7783 29.3373 27.7775 28.7963V28.1481H12.2219ZM11.9626 16.4815H28.0367L26.6756 12.5926H13.3237L11.9626 16.4815ZM14.1663 24.2593C14.7065 24.2593 15.1658 24.0704 15.5443 23.6928C15.9228 23.3151 16.1116 22.8558 16.1108 22.3148C16.1108 21.7747 15.922 21.3158 15.5443 20.9381C15.1666 20.5605 14.7073 20.3712 14.1663 20.3704C13.6262 20.3704 13.1673 20.5596 12.7897 20.9381C12.412 21.3167 12.2228 21.7756 12.2219 22.3148C12.2219 22.8549 12.4112 23.3143 12.7897 23.6928C13.1682 24.0713 13.6271 24.2601 14.1663 24.2593ZM25.833 24.2593C26.3731 24.2593 26.8325 24.0704 27.211 23.6928C27.5895 23.3151 27.7783 22.8558 27.7775 22.3148C27.7775 21.7747 27.5886 21.3158 27.211 20.9381C26.8333 20.5605 26.374 20.3712 25.833 20.3704C25.2929 20.3704 24.834 20.5596 24.4563 20.9381C24.0787 21.3167 23.8894 21.7756 23.8886 22.3148C23.8886 22.8549 24.0778 23.3143 24.4563 23.6928C24.8349 24.0713 25.2937 24.2601 25.833 24.2593ZM10.9256 25.5556H29.0737V19.0741H10.9256V25.5556Z" fill="#5D2B2C"/>
</svg>
