<svg width="16" height="16" viewBox="0 0 16 16" fill="none" xmlns="http://www.w3.org/2000/svg">
<path d="M6.47609 10.9127L8.49973 9.63463L10.5234 10.9295L9.99337 8.50793L11.7761 6.89356L9.43124 6.67495L8.49973 4.38792L7.56821 6.65813L5.22336 6.87674L7.00609 8.50793L6.47609 10.9127ZM8.49973 11.2154L5.83366 12.897C5.71588 12.9755 5.59275 13.0091 5.46427 12.9979C5.33578 12.9867 5.22336 12.9418 5.12699 12.8634C5.03063 12.7849 4.95568 12.6869 4.90214 12.5694C4.84861 12.4519 4.8379 12.3201 4.87002 12.1739L5.57669 8.99561L3.21578 6.85993C3.1087 6.75903 3.04189 6.64401 3.01534 6.51486C2.98878 6.38571 2.99671 6.2597 3.03911 6.13682C3.08194 6.0135 3.14618 5.91261 3.23184 5.83413C3.31749 5.75565 3.43527 5.7052 3.58517 5.68278L6.70093 5.3969L7.90548 2.40359C7.95902 2.26906 8.04211 2.16816 8.15474 2.1009C8.26738 2.03363 8.38238 2 8.49973 2C8.6175 2 8.7325 2.03363 8.84471 2.1009C8.95692 2.16816 9.04001 2.26906 9.09397 2.40359L10.2985 5.3969L13.4143 5.68278C13.5642 5.7052 13.682 5.75565 13.7676 5.83413C13.8533 5.91261 13.9175 6.0135 13.9603 6.13682C14.0032 6.26014 14.0113 6.38638 13.9848 6.51553C13.9582 6.64468 13.8912 6.75948 13.7837 6.85993L11.4228 8.99561L12.1294 12.1739C12.1616 12.3196 12.1508 12.4515 12.0973 12.5694C12.0438 12.6874 11.9688 12.7853 11.8725 12.8634C11.7761 12.9418 11.6637 12.9867 11.5352 12.9979C11.4067 13.0091 11.2836 12.9755 11.1658 12.897L8.49973 11.2154Z" fill="white"/>
</svg>
