<svg width="56" height="56" viewBox="0 0 56 56" fill="none" xmlns="http://www.w3.org/2000/svg">
<rect width="56" height="56" rx="4" fill="#5B5751"/>
<path d="M20.9487 37C20.4128 37 19.9542 36.8043 19.5729 36.413C19.1916 36.0217 19.0006 35.5507 19 35V21C19 20.45 19.191 19.9793 19.5729 19.588C19.9549 19.1967 20.4135 19.0007 20.9487 19H34.5897C35.1256 19 35.5846 19.196 35.9665 19.588C36.3485 19.98 36.5391 20.4507 36.5385 21V35C36.5385 35.55 36.3478 36.021 35.9665 36.413C35.5852 36.805 35.1263 37.0007 34.5897 37H20.9487ZM23.6477 30.6399C22.9311 31.6206 23.6315 33 24.8462 33H29.9615C31.4799 33 32.3336 31.246 31.4378 30.0202C30.7147 29.0306 29.2231 29.0105 28.5 30L28.1346 30.5C27.5923 31.2422 26.4846 31.2422 25.9423 30.5C25.4 29.7578 24.2923 29.7578 23.75 30.5L23.6477 30.6399Z" fill="white"/>
</svg>
